<svg xmlns="http://www.w3.org/2000/svg" width="266.9407043457031" height="283.6527404785156" viewBox="-39.76492691040039 -30.902345657348633 266.9407043457031 283.6527404785156"><title>Neo4j Graph Visualization</title><desc>Created using Neo4j (http://www.neo4j.com/)</desc><g class="layer relationships"><g class="relationship" transform="translate(198.17580026425003 223.750391292073) rotate(230.15795554926422)"><path class="outline" fill="#A5ABB6" stroke="none" d="M 25 0.5 L 31.00714799308801 0.5 L 31.00714799308801 -0.5 L 25 -0.5 Z M 76.56964799308801 0.5 L 82.57679598617602 0.5 L 82.57679598617602 3.5 L 89.57679598617602 0 L 82.57679598617602 -3.5 L 82.57679598617602 -0.5 L 76.56964799308801 -0.5 Z"/><text text-anchor="middle" pointer-events="none" font-size="8px" fill="#000000" x="53.78839799308801" y="3" transform="rotate(180 53.78839799308801 0)" font-family="sans-serif">ACTED_IN</text></g><g class="relationship" transform="translate(24.11263833223979 158.5649062103196) rotate(303.4187817959532)"><path class="outline" fill="#A5ABB6" stroke="none" d="M 25 0.5 L 25.894034436289587 0.5 L 25.894034436289587 -0.5 L 25 -0.5 Z M 67.00731568628959 0.5 L 67.90135012257917 0.5 L 67.90135012257917 3.5 L 74.90135012257917 0 L 67.90135012257917 -3.5 L 67.90135012257917 -0.5 L 67.00731568628959 -0.5 Z"/><text text-anchor="middle" pointer-events="none" font-size="8px" fill="#000000" x="46.45067506128959" y="3" font-family="sans-serif">ACTED…</text></g><g class="relationship" transform="translate(24.11263833223979 158.5649062103196) rotate(275.7653092615004)"><path class="outline" fill="#A5ABB6" stroke="none" d="M 25 0.5 L 42.996021497167604 0.5 L 42.996021497167604 -0.5 L 25 -0.5 Z M 88.5585214971676 0.5 L 106.55454299433521 0.5 L 106.55454299433521 3.5 L 113.55454299433521 0 L 106.55454299433521 -3.5 L 106.55454299433521 -0.5 L 88.5585214971676 -0.5 Z"/><text text-anchor="middle" pointer-events="none" font-size="8px" fill="#000000" x="65.7772714971676" y="3" font-family="sans-serif">ACTED_IN</text></g><g class="relationship" transform="translate(24.11263833223979 158.5649062103196) rotate(347.24360359219236)"><path class="outline" fill="#A5ABB6" stroke="none" d="M 25 0.5 L 25.32084330103239 0.5 L 25.32084330103239 -0.5 L 25 -0.5 Z M 70.8833433010324 0.5 L 71.20418660206478 0.5 L 71.20418660206478 3.5 L 78.20418660206478 0 L 71.20418660206478 -3.5 L 71.20418660206478 -0.5 L 70.8833433010324 -0.5 Z"/><text text-anchor="middle" pointer-events="none" font-size="8px" fill="#000000" x="48.10209330103239" y="3" font-family="sans-serif">ACTED_IN</text></g><g class="relationship" transform="translate(174.23816094533615 45.089076428160716) rotate(522.4424121876616)"><path class="outline" fill="#A5ABB6" stroke="none" d="M 25 0.5 L 25.81906591538116 0.5 L 25.81906591538116 -0.5 L 25 -0.5 Z M 66.93234716538116 0.5 L 67.75141308076232 0.5 L 67.75141308076232 3.5 L 74.75141308076232 0 L 67.75141308076232 -3.5 L 67.75141308076232 -0.5 L 66.93234716538116 -0.5 Z"/><text text-anchor="middle" pointer-events="none" font-size="8px" fill="#000000" x="46.37570654038116" y="3" transform="rotate(180 46.37570654038116 0)" font-family="sans-serif">ACTED…</text></g><g class="relationship" transform="translate(174.23816094533615 45.089076428160716) rotate(190.14715390026532)"><path class="outline" fill="#A5ABB6" stroke="none" d="M 25 0.5 L 42.90450598846523 0.5 L 42.90450598846523 -0.5 L 25 -0.5 Z M 88.46700598846523 0.5 L 106.37151197693046 0.5 L 106.37151197693046 3.5 L 113.37151197693046 0 L 106.37151197693046 -3.5 L 106.37151197693046 -0.5 L 88.46700598846523 -0.5 Z"/><text text-anchor="middle" pointer-events="none" font-size="8px" fill="#000000" x="65.68575598846523" y="3" transform="rotate(180 65.68575598846523 0)" font-family="sans-serif">ACTED_IN</text></g><g class="relationship" transform="translate(174.23816094533615 45.089076428160716) rotate(478.6117454643223)"><path class="outline" fill="#A5ABB6" stroke="none" d="M 25 0.5 L 25.369997668936662 0.5 L 25.369997668936662 -0.5 L 25 -0.5 Z M 70.93249766893666 0.5 L 71.30249533787332 0.5 L 71.30249533787332 3.5 L 78.30249533787332 0 L 71.30249533787332 -3.5 L 71.30249533787332 -0.5 L 70.93249766893666 -0.5 Z"/><text text-anchor="middle" pointer-events="none" font-size="8px" fill="#000000" x="48.15124766893666" y="3" transform="rotate(180 48.15124766893666 0)" font-family="sans-serif">ACTED_IN</text></g><g class="relationship" transform="translate(136.94889732681705 -1.9023454456279003) rotate(486.8713305402438)"><path class="outline" fill="#A5ABB6" stroke="none" d="M 25 0.5 L 27.009719060119643 0.5 L 27.009719060119643 -0.5 L 25 -0.5 Z M 62.34565656011964 0.5 L 64.35537562023929 0.5 L 64.35537562023929 3.5 L 71.35537562023929 0 L 64.35537562023929 -3.5 L 64.35537562023929 -0.5 L 62.34565656011964 -0.5 Z"/><text text-anchor="middle" pointer-events="none" font-size="8px" fill="#000000" x="44.67768781011964" y="3" transform="rotate(180 44.67768781011964 0)" font-family="sans-serif">ACTE…</text></g><g class="relationship" transform="translate(136.94889732681705 -1.9023454456279003) rotate(527.1229349907101)"><path class="outline" fill="#A5ABB6" stroke="none" d="M 25 0.5 L 26.67827474233782 0.5 L 26.67827474233782 -0.5 L 25 -0.5 Z M 67.79155599233782 0.5 L 69.46983073467564 0.5 L 69.46983073467564 3.5 L 76.46983073467564 0 L 69.46983073467564 -3.5 L 69.46983073467564 -0.5 L 67.79155599233782 -0.5 Z"/><text text-anchor="middle" pointer-events="none" font-size="8px" fill="#000000" x="47.23491536733782" y="3" transform="rotate(180 47.23491536733782 0)" font-family="sans-serif">ACTED…</text></g><g class="relationship" transform="translate(136.94889732681705 -1.9023454456279003) rotate(455.0553487062939)"><path class="outline" fill="#A5ABB6" stroke="none" d="M 25 0.5 L 42.82713644343056 0.5 L 42.82713644343056 -0.5 L 25 -0.5 Z M 88.38963644343056 0.5 L 106.21677288686112 0.5 L 106.21677288686112 3.5 L 113.21677288686112 0 L 106.21677288686112 -3.5 L 106.21677288686112 -0.5 L 88.38963644343056 -0.5 Z"/><text text-anchor="middle" pointer-events="none" font-size="8px" fill="#000000" x="65.60838644343056" y="3" transform="rotate(180 65.60838644343056 0)" font-family="sans-serif">ACTED_IN</text></g><g class="relationship" transform="translate(-10.764927022012294 109.75360120791744) rotate(338.96433227604916)"><path class="outline" fill="#A5ABB6" stroke="none" d="M 25 0.5 L 26.99080453625755 0.5 L 26.99080453625755 -0.5 L 25 -0.5 Z M 62.32674203625755 0.5 L 64.3175465725151 0.5 L 64.3175465725151 3.5 L 71.3175465725151 0 L 64.3175465725151 -3.5 L 64.3175465725151 -0.5 L 62.32674203625755 -0.5 Z"/><text text-anchor="middle" pointer-events="none" font-size="8px" fill="#000000" x="44.65877328625755" y="3" font-family="sans-serif">ACTE…</text></g><g class="relationship" transform="translate(-10.764927022012294 109.75360120791744) rotate(298.723078624249)"><path class="outline" fill="#A5ABB6" stroke="none" d="M 25 0.5 L 26.711430121823014 0.5 L 26.711430121823014 -0.5 L 25 -0.5 Z M 67.82471137182301 0.5 L 69.53614149364603 0.5 L 69.53614149364603 3.5 L 76.53614149364603 0 L 69.53614149364603 -3.5 L 69.53614149364603 -0.5 L 67.82471137182301 -0.5 Z"/><text text-anchor="middle" pointer-events="none" font-size="8px" fill="#000000" x="47.268070746823014" y="3" font-family="sans-serif">ACTED…</text></g><g class="relationship" transform="translate(-10.764927022012294 109.75360120791744) rotate(370.86875256788466)"><path class="outline" fill="#A5ABB6" stroke="none" d="M 25 0.5 L 42.72380012065837 0.5 L 42.72380012065837 -0.5 L 25 -0.5 Z M 88.28630012065837 0.5 L 106.01010024131674 0.5 L 106.01010024131674 3.5 L 113.01010024131674 0 L 106.01010024131674 -3.5 L 106.01010024131674 -0.5 L 88.28630012065837 -0.5 Z"/><text text-anchor="middle" pointer-events="none" font-size="8px" fill="#000000" x="65.50505012065837" y="3" font-family="sans-serif">ACTED_IN</text></g></g><g class="layer nodes"><g class="node" transform="translate(124.76950577557417,135.7767696325119)"><circle class="outline" cx="0" cy="0" r="25" fill="#F79767" stroke="#f36924" stroke-width="2px"/><text text-anchor="middle" pointer-events="none" font-family="sans-serif" dy="1.5625" font-size="25" fill="#FFFFFF"/><text text-anchor="middle" pointer-events="none" font-family="sans-serif" dy="1.5625" font-size="25" fill="#FFFFFF"/><text text-anchor="middle" pointer-events="none" x="0" y="0" font-size="10px" fill="#FFFFFF" font-family="sans-serif"> The</text><text text-anchor="middle" pointer-events="none" x="0" y="10" font-size="10px" fill="#FFFFFF" font-family="sans-serif"> Matrix</text></g><g class="node" transform="translate(198.17580026425003,223.750391292073)"><circle class="outline" cx="0" cy="0" r="25" fill="#57C7E3" stroke="#23b3d7" stroke-width="2px"/><text text-anchor="middle" pointer-events="none" font-family="sans-serif" dy="1.5625" font-size="25" fill="#2A2C34"/><text text-anchor="middle" pointer-events="none" font-family="sans-serif" dy="1.5625" font-size="25" fill="#2A2C34"/><text text-anchor="middle" pointer-events="none" x="0" y="0" font-size="10px" fill="#2A2C34" font-family="sans-serif"> Emil</text><text text-anchor="middle" pointer-events="none" x="0" y="10" font-size="10px" fill="#2A2C34" font-family="sans-serif"> Eifrem</text></g><g class="node" transform="translate(24.11263833223979,158.5649062103196)"><circle class="outline" cx="0" cy="0" r="25" fill="#57C7E3" stroke="#23b3d7" stroke-width="2px"/><text text-anchor="middle" pointer-events="none" font-family="sans-serif" dy="1.5625" font-size="25" fill="#2A2C34"/><text text-anchor="middle" pointer-events="none" font-family="sans-serif" dy="1.5625" font-size="25" fill="#2A2C34"/><text text-anchor="middle" pointer-events="none" x="0" y="0" font-size="10px" fill="#2A2C34" font-family="sans-serif"> Hugo</text><text text-anchor="middle" pointer-events="none" x="0" y="10" font-size="10px" fill="#2A2C34" font-family="sans-serif"> Weaving</text></g><g class="node" transform="translate(174.23816094533615,45.089076428160716)"><circle class="outline" cx="0" cy="0" r="25" fill="#57C7E3" stroke="#23b3d7" stroke-width="2px"/><text text-anchor="middle" pointer-events="none" font-family="sans-serif" dy="1.5625" font-size="25" fill="#2A2C34"/><text text-anchor="middle" pointer-events="none" font-family="sans-serif" dy="1.5625" font-size="25" fill="#2A2C34"/><text text-anchor="middle" pointer-events="none" x="0" y="0" font-size="10px" fill="#2A2C34" font-family="sans-serif"> Laurence</text><text text-anchor="middle" pointer-events="none" x="0" y="10" font-size="10px" fill="#2A2C34" font-family="sans-serif"> Fishbur…</text></g><g class="node" transform="translate(136.94889732681705,-1.9023454456279003)"><circle class="outline" cx="0" cy="0" r="25" fill="#57C7E3" stroke="#23b3d7" stroke-width="2px"/><text text-anchor="middle" pointer-events="none" font-family="sans-serif" dy="1.5625" font-size="25" fill="#2A2C34"/><text text-anchor="middle" pointer-events="none" x="0" y="5" font-size="10px" fill="#2A2C34" font-family="sans-serif"> Carrie-A…</text></g><g class="node" transform="translate(-10.764927022012294,109.75360120791744)"><circle class="outline" cx="0" cy="0" r="25" fill="#57C7E3" stroke="#23b3d7" stroke-width="2px"/><text text-anchor="middle" pointer-events="none" font-family="sans-serif" dy="1.5625" font-size="25" fill="#2A2C34"/><text text-anchor="middle" pointer-events="none" font-family="sans-serif" dy="1.5625" font-size="25" fill="#2A2C34"/><text text-anchor="middle" pointer-events="none" x="0" y="0" font-size="10px" fill="#2A2C34" font-family="sans-serif"> Keanu</text><text text-anchor="middle" pointer-events="none" x="0" y="10" font-size="10px" fill="#2A2C34" font-family="sans-serif"> Reeves</text></g><g class="node" transform="translate(38.030984015008436,20.711211889768155)"><circle class="outline" cx="0" cy="0" r="25" fill="#F79767" stroke="#f36924" stroke-width="2px"/><text text-anchor="middle" pointer-events="none" font-family="sans-serif" dy="1.5625" font-size="25" fill="#FFFFFF"/><text text-anchor="middle" pointer-events="none" font-family="sans-serif" dy="1.5625" font-size="25" fill="#FFFFFF"/><text text-anchor="middle" pointer-events="none" font-family="sans-serif" dy="1.5625" font-size="25" fill="#FFFFFF"/><text text-anchor="middle" pointer-events="none" x="0" y="-5" font-size="10px" fill="#FFFFFF" font-family="sans-serif"> The</text><text text-anchor="middle" pointer-events="none" x="0" y="5" font-size="10px" fill="#FFFFFF" font-family="sans-serif"> Matrix</text><text text-anchor="middle" pointer-events="none" x="0" y="15" font-size="10px" fill="#FFFFFF" font-family="sans-serif"> Reloa…</text></g><g class="node" transform="translate(79.13374419267156,75.180509191397)"><circle class="outline" cx="0" cy="0" r="25" fill="#F79767" stroke="#f36924" stroke-width="2px"/><text text-anchor="middle" pointer-events="none" font-family="sans-serif" dy="1.5625" font-size="25" fill="#FFFFFF"/><text text-anchor="middle" pointer-events="none" font-family="sans-serif" dy="1.5625" font-size="25" fill="#FFFFFF"/><text text-anchor="middle" pointer-events="none" font-family="sans-serif" dy="1.5625" font-size="25" fill="#FFFFFF"/><text text-anchor="middle" pointer-events="none" x="0" y="-5" font-size="10px" fill="#FFFFFF" font-family="sans-serif"> The</text><text text-anchor="middle" pointer-events="none" x="0" y="5" font-size="10px" fill="#FFFFFF" font-family="sans-serif"> Matrix</text><text text-anchor="middle" pointer-events="none" x="0" y="15" font-size="10px" fill="#FFFFFF" font-family="sans-serif"> Revol…</text></g></g></svg>