<svg xmlns="http://www.w3.org/2000/svg" width="284.85430908203125" height="287.0395202636719" viewBox="-51.478118896484375 -47.92322540283203 284.85430908203125 287.0395202636719"><title>Neo4j Graph Visualization</title><desc>Created using Neo4j (http://www.neo4j.com/)</desc><g class="layer relationships"><g class="relationship" transform="translate(149.6716803055851 198.3480549341623) rotate(241.16920042688537)"><path class="outline" fill="#A5ABB6" stroke="none" d="M 25 0.5 L 33.95252713613518 0.5 L 33.95252713613518 -0.5 L 25 -0.5 Z M 79.51502713613519 0.5 L 88.46755427227036 0.5 L 88.46755427227036 3.5 L 95.46755427227036 0 L 88.46755427227036 -3.5 L 88.46755427227036 -0.5 L 79.51502713613519 -0.5 Z"/><text text-anchor="middle" pointer-events="none" font-size="8px" fill="#000000" x="56.73377713613518" y="3" transform="rotate(180 56.73377713613518 0)" font-family="sans-serif">ACTED_IN</text></g><g class="relationship" transform="translate(204.3762102453598 135.197904190668) rotate(200.59446786702523)"><path class="outline" fill="#A5ABB6" stroke="none" d="M 25 0.5 L 33.96751562260337 0.5 L 33.96751562260337 -0.5 L 25 -0.5 Z M 79.53001562260337 0.5 L 88.49753124520674 0.5 L 88.49753124520674 3.5 L 95.49753124520674 0 L 88.49753124520674 -3.5 L 88.49753124520674 -0.5 L 79.53001562260337 -0.5 Z"/><text text-anchor="middle" pointer-events="none" font-size="8px" fill="#000000" x="56.74876562260337" y="3" transform="rotate(180 56.74876562260337 0)" font-family="sans-serif">ACTED_IN</text></g><g class="relationship" transform="translate(203.68628642422132 47.97775725464113) rotate(518.2020382872743)"><path class="outline" fill="#A5ABB6" stroke="none" d="M 25 0.5 L 34.088781507369866 0.5 L 34.088781507369866 -0.5 L 25 -0.5 Z M 79.65128150736987 0.5 L 88.74006301473973 0.5 L 88.74006301473973 3.5 L 95.74006301473973 0 L 88.74006301473973 -3.5 L 88.74006301473973 -0.5 L 79.65128150736987 -0.5 Z"/><text text-anchor="middle" pointer-events="none" font-size="8px" fill="#000000" x="56.870031507369866" y="3" transform="rotate(180 56.870031507369866 0)" font-family="sans-serif">ACTED_IN</text></g><g class="relationship" transform="translate(136.1321646224211 -18.923225944725136) rotate(471.7388418747888)"><path class="outline" fill="#A5ABB6" stroke="none" d="M 25 0.5 L 33.864175905323386 0.5 L 33.864175905323386 -0.5 L 25 -0.5 Z M 79.42667590532338 0.5 L 88.29085181064677 0.5 L 88.29085181064677 3.5 L 95.29085181064677 0 L 88.29085181064677 -3.5 L 88.29085181064677 -0.5 L 79.42667590532338 -0.5 Z"/><text text-anchor="middle" pointer-events="none" font-size="8px" fill="#000000" x="56.645425905323386" y="3" transform="rotate(180 56.645425905323386 0)" font-family="sans-serif">ACTED_IN</text></g><g class="relationship" transform="translate(39.87453064070073 -15.026273219829433) rotate(424.3840471246436)"><path class="outline" fill="#A5ABB6" stroke="none" d="M 25 0.5 L 33.51555650192199 0.5 L 33.51555650192199 -0.5 L 25 -0.5 Z M 79.07805650192199 0.5 L 87.59361300384398 0.5 L 87.59361300384398 3.5 L 94.59361300384398 0 L 87.59361300384398 -3.5 L 87.59361300384398 -0.5 L 79.07805650192199 -0.5 Z"/><text text-anchor="middle" pointer-events="none" font-size="8px" fill="#000000" x="56.29680650192199" y="3" font-family="sans-serif">ACTED_IN</text></g><g class="relationship" transform="translate(-22.478119115113294 56.942096055097814) rotate(377.45818113901305)"><path class="outline" fill="#A5ABB6" stroke="none" d="M 25 0.5 L 38.3957783542553 0.5 L 38.3957783542553 -0.5 L 25 -0.5 Z M 74.1692158542553 0.5 L 87.5649942085106 0.5 L 87.5649942085106 3.5 L 94.5649942085106 0 L 87.5649942085106 -3.5 L 87.5649942085106 -0.5 L 74.1692158542553 -0.5 Z"/><text text-anchor="middle" pointer-events="none" font-size="8px" fill="#000000" x="56.2824971042553" y="3" font-family="sans-serif">WROTE</text></g><g class="relationship" transform="translate(-12.61654161184001 152.78732775283038) rotate(330.07548291586124)"><path class="outline" fill="#A5ABB6" stroke="none" d="M 25 0.5 L 38.72508214482982 0.5 L 38.72508214482982 -0.5 L 25 -0.5 Z M 74.49851964482983 0.5 L 88.22360178965964 0.5 L 88.22360178965964 3.5 L 95.22360178965964 0 L 88.22360178965964 -3.5 L 88.22360178965964 -0.5 L 74.49851964482983 -0.5 Z"/><text text-anchor="middle" pointer-events="none" font-size="8px" fill="#000000" x="56.61180089482982" y="3" font-family="sans-serif">WROTE</text></g><g class="relationship" transform="translate(63.24970334362816 210.11628439793938) rotate(283.57731279181314)"><path class="outline" fill="#A5ABB6" stroke="none" d="M 25 0.5 L 33.39266022671715 0.5 L 33.39266022671715 -0.5 L 25 -0.5 Z M 80.28328522671714 0.5 L 88.6759454534343 0.5 L 88.6759454534343 3.5 L 95.6759454534343 0 L 88.6759454534343 -3.5 L 88.6759454534343 -0.5 L 80.28328522671714 -0.5 Z"/><text text-anchor="middle" pointer-events="none" font-size="8px" fill="#000000" x="56.83797272671715" y="3" font-family="sans-serif">DIRECTED</text></g></g><g class="layer nodes"><g class="node" transform="translate(91.57925411058946,92.81274496104766)"><circle class="outline" cx="0" cy="0" r="25" fill="#F79767" stroke="#f36924" stroke-width="2px"/><text text-anchor="middle" pointer-events="none" font-family="sans-serif" dy="1.5625" font-size="25" fill="#FFFFFF"/><text text-anchor="middle" pointer-events="none" font-family="sans-serif" dy="1.5625" font-size="25" fill="#FFFFFF"/><text text-anchor="middle" pointer-events="none" font-family="sans-serif" dy="1.5625" font-size="25" fill="#FFFFFF"/><text text-anchor="middle" pointer-events="none" x="0" y="-5" font-size="10px" fill="#FFFFFF" font-family="sans-serif"> Captain</text><text text-anchor="middle" pointer-events="none" x="0" y="5" font-size="10px" fill="#FFFFFF" font-family="sans-serif"> America:</text><text text-anchor="middle" pointer-events="none" x="0" y="15" font-size="10px" fill="#FFFFFF" font-family="sans-serif"> The Fi…</text></g><g class="node" transform="translate(149.6716803055851,198.3480549341623)"><circle class="outline" cx="0" cy="0" r="25" fill="#57C7E3" stroke="#23b3d7" stroke-width="2px"/><text text-anchor="middle" pointer-events="none" font-family="sans-serif" dy="1.5625" font-size="25" fill="#2A2C34"/><text text-anchor="middle" pointer-events="none" font-family="sans-serif" dy="1.5625" font-size="25" fill="#2A2C34"/><text text-anchor="middle" pointer-events="none" x="0" y="0" font-size="10px" fill="#2A2C34" font-family="sans-serif"> Tommy</text><text text-anchor="middle" pointer-events="none" x="0" y="10" font-size="10px" fill="#2A2C34" font-family="sans-serif"> Lee Jon…</text></g><g class="node" transform="translate(204.3762102453598,135.197904190668)"><circle class="outline" cx="0" cy="0" r="25" fill="#57C7E3" stroke="#23b3d7" stroke-width="2px"/><text text-anchor="middle" pointer-events="none" font-family="sans-serif" dy="1.5625" font-size="25" fill="#2A2C34"/><text text-anchor="middle" pointer-events="none" font-family="sans-serif" dy="1.5625" font-size="25" fill="#2A2C34"/><text text-anchor="middle" pointer-events="none" x="0" y="0" font-size="10px" fill="#2A2C34" font-family="sans-serif"> Hugo</text><text text-anchor="middle" pointer-events="none" x="0" y="10" font-size="10px" fill="#2A2C34" font-family="sans-serif"> Weaving</text></g><g class="node" transform="translate(203.68628642422132,47.97775725464113)"><circle class="outline" cx="0" cy="0" r="25" fill="#57C7E3" stroke="#23b3d7" stroke-width="2px"/><text text-anchor="middle" pointer-events="none" font-family="sans-serif" dy="1.5625" font-size="25" fill="#2A2C34"/><text text-anchor="middle" pointer-events="none" x="0" y="5" font-size="10px" fill="#2A2C34" font-family="sans-serif"> Sebastian</text></g><g class="node" transform="translate(136.1321646224211,-18.923225944725136)"><circle class="outline" cx="0" cy="0" r="25" fill="#57C7E3" stroke="#23b3d7" stroke-width="2px"/><text text-anchor="middle" pointer-events="none" font-family="sans-serif" dy="1.5625" font-size="25" fill="#2A2C34"/><text text-anchor="middle" pointer-events="none" font-family="sans-serif" dy="1.5625" font-size="25" fill="#2A2C34"/><text text-anchor="middle" pointer-events="none" x="0" y="0" font-size="10px" fill="#2A2C34" font-family="sans-serif"> Hayley</text><text text-anchor="middle" pointer-events="none" x="0" y="10" font-size="10px" fill="#2A2C34" font-family="sans-serif"> Atwell</text></g><g class="node" transform="translate(39.87453064070073,-15.026273219829433)"><circle class="outline" cx="0" cy="0" r="25" fill="#57C7E3" stroke="#23b3d7" stroke-width="2px"/><text text-anchor="middle" pointer-events="none" font-family="sans-serif" dy="1.5625" font-size="25" fill="#2A2C34"/><text text-anchor="middle" pointer-events="none" font-family="sans-serif" dy="1.5625" font-size="25" fill="#2A2C34"/><text text-anchor="middle" pointer-events="none" x="0" y="0" font-size="10px" fill="#2A2C34" font-family="sans-serif"> Chris</text><text text-anchor="middle" pointer-events="none" x="0" y="10" font-size="10px" fill="#2A2C34" font-family="sans-serif"> Evans</text></g><g class="node" transform="translate(-22.478119115113294,56.942096055097814)"><circle class="outline" cx="0" cy="0" r="25" fill="#57C7E3" stroke="#23b3d7" stroke-width="2px"/><text text-anchor="middle" pointer-events="none" font-family="sans-serif" dy="1.5625" font-size="25" fill="#2A2C34"/><text text-anchor="middle" pointer-events="none" font-family="sans-serif" dy="1.5625" font-size="25" fill="#2A2C34"/><text text-anchor="middle" pointer-events="none" x="0" y="0" font-size="10px" fill="#2A2C34" font-family="sans-serif"> Stephen</text><text text-anchor="middle" pointer-events="none" x="0" y="10" font-size="10px" fill="#2A2C34" font-family="sans-serif"> McFeely</text></g><g class="node" transform="translate(-12.61654161184001,152.78732775283038)"><circle class="outline" cx="0" cy="0" r="25" fill="#57C7E3" stroke="#23b3d7" stroke-width="2px"/><text text-anchor="middle" pointer-events="none" font-family="sans-serif" dy="1.5625" font-size="25" fill="#2A2C34"/><text text-anchor="middle" pointer-events="none" x="0" y="5" font-size="10px" fill="#2A2C34" font-family="sans-serif"> Christop…</text></g><g class="node" transform="translate(63.24970334362816,210.11628439793938)"><circle class="outline" cx="0" cy="0" r="25" fill="#57C7E3" stroke="#23b3d7" stroke-width="2px"/><text text-anchor="middle" pointer-events="none" font-family="sans-serif" dy="1.5625" font-size="25" fill="#2A2C34"/><text text-anchor="middle" pointer-events="none" font-family="sans-serif" dy="1.5625" font-size="25" fill="#2A2C34"/><text text-anchor="middle" pointer-events="none" x="0" y="0" font-size="10px" fill="#2A2C34" font-family="sans-serif"> Joe</text><text text-anchor="middle" pointer-events="none" x="0" y="10" font-size="10px" fill="#2A2C34" font-family="sans-serif"> Johnston</text></g></g></svg>