<svg xmlns="http://www.w3.org/2000/svg" width="655.2485961914062" height="648.5467529296875" viewBox="-234.9400634765625 -217.18482971191406 655.2485961914062 648.5467529296875"><title>Neo4j Graph Visualization</title><desc>Created using Neo4j (http://www.neo4j.com/)</desc><g class="layer relationships"><g class="relationship" transform="translate(235.30513545671494 131.52302510624534) rotate(181.6423998727555)"><path class="outline" fill="#A5ABB6" stroke="none" d="M 25 0.5 L 61.916734960765226 0.5 L 61.916734960765226 -0.5 L 25 -0.5 Z M 96.36204746076523 0.5 L 133.27878242153045 0.5 L 133.27878242153045 3.5 L 140.27878242153045 0 L 133.27878242153045 -3.5 L 133.27878242153045 -0.5 L 96.36204746076523 -0.5 Z"/><text text-anchor="middle" pointer-events="none" font-size="8px" fill="#000000" x="79.13939121076523" y="3" transform="rotate(180 79.13939121076523 0)" font-family="sans-serif">ORIGIN</text></g><g class="relationship" transform="translate(235.30513545671494 131.52302510624534) rotate(354.97272341640394)"><path class="outline" fill="#A5ABB6" stroke="none" d="M 25 0.5 L 45.207241498681796 0.5 L 45.207241498681796 -0.5 L 25 -0.5 Z M 104.3986477486818 0.5 L 124.60588924736359 0.5 L 124.60588924736359 3.5 L 131.6058892473636 0 L 124.60588924736359 -3.5 L 124.60588924736359 -0.5 L 104.3986477486818 -0.5 Z"/><text text-anchor="middle" pointer-events="none" font-size="8px" fill="#000000" x="74.8029446236818" y="3" font-family="sans-serif">DESTINATION</text></g><g class="relationship" transform="translate(171.84834637744913 296.57859702641906) rotate(239.0664043966937)"><path class="outline" fill="#A5ABB6" stroke="none" d="M 25 0.5 L 78.25139580955938 0.5 L 78.25139580955938 -0.5 L 25 -0.5 Z M 112.69670830955938 0.5 L 165.94810411911877 0.5 L 165.94810411911877 3.5 L 172.94810411911877 0 L 165.94810411911877 -3.5 L 165.94810411911877 -0.5 L 112.69670830955938 -0.5 Z"/><text text-anchor="middle" pointer-events="none" font-size="8px" fill="#000000" x="95.47405205955938" y="3" transform="rotate(180 95.47405205955938 0)" font-family="sans-serif">ORIGIN</text></g><g class="relationship" transform="translate(171.84834637744913 296.57859702641906) rotate(488.07842816240407)"><path class="outline" fill="#A5ABB6" stroke="none" d="M 25 0.5 L 34.09672076113429 0.5 L 34.09672076113429 -0.5 L 25 -0.5 Z M 93.28812701113429 0.5 L 102.38484777226859 0.5 L 102.38484777226859 3.5 L 109.38484777226859 0 L 102.38484777226859 -3.5 L 102.38484777226859 -0.5 L 93.28812701113429 -0.5 Z"/><text text-anchor="middle" pointer-events="none" font-size="8px" fill="#000000" x="63.69242388613429" y="3" transform="rotate(180 63.69242388613429 0)" font-family="sans-serif">DESTINATION</text></g><g class="relationship" transform="translate(78.5259296838674 251.21189461584402) rotate(266.12330134969613)"><path class="outline" fill="#A5ABB6" stroke="none" d="M 25 0.5 L 41.63301451823946 0.5 L 41.63301451823946 -0.5 L 25 -0.5 Z M 76.07832701823946 0.5 L 92.71134153647893 0.5 L 92.71134153647893 3.5 L 99.71134153647893 0 L 92.71134153647893 -3.5 L 92.71134153647893 -0.5 L 76.07832701823946 -0.5 Z"/><text text-anchor="middle" pointer-events="none" font-size="8px" fill="#000000" x="58.85567076823946" y="3" transform="rotate(180 58.85567076823946 0)" font-family="sans-serif">ORIGIN</text></g><g class="relationship" transform="translate(78.5259296838674 251.21189461584402) rotate(446.04808928348365)"><path class="outline" fill="#A5ABB6" stroke="none" d="M 25 0.5 L 42.65945269990745 0.5 L 42.65945269990745 -0.5 L 25 -0.5 Z M 101.85085894990745 0.5 L 119.5103116498149 0.5 L 119.5103116498149 3.5 L 126.5103116498149 0 L 119.5103116498149 -3.5 L 119.5103116498149 -0.5 L 101.85085894990745 -0.5 Z"/><text text-anchor="middle" pointer-events="none" font-size="8px" fill="#000000" x="72.25515582490745" y="3" font-family="sans-serif">DESTINATION</text></g><g class="relationship" transform="translate(223.00711497249674 196.25555168622412) rotate(204.43271081723282)"><path class="outline" fill="#A5ABB6" stroke="none" d="M 25 0.5 L 63.25408814034168 0.5 L 63.25408814034168 -0.5 L 25 -0.5 Z M 97.69940064034168 0.5 L 135.95348878068336 0.5 L 135.95348878068336 3.5 L 142.95348878068336 0 L 135.95348878068336 -3.5 L 135.95348878068336 -0.5 L 97.69940064034168 -0.5 Z"/><text text-anchor="middle" pointer-events="none" font-size="8px" fill="#000000" x="80.47674439034168" y="3" transform="rotate(180 80.47674439034168 0)" font-family="sans-serif">ORIGIN</text></g><g class="relationship" transform="translate(223.00711497249674 196.25555168622412) rotate(386.9873719896178)"><path class="outline" fill="#A5ABB6" stroke="none" d="M 25 0.5 L 44.40526453812707 0.5 L 44.40526453812707 -0.5 L 25 -0.5 Z M 103.59667078812707 0.5 L 123.00193532625414 0.5 L 123.00193532625414 3.5 L 130.00193532625414 0 L 123.00193532625414 -3.5 L 123.00193532625414 -0.5 L 103.59667078812707 -0.5 Z"/><text text-anchor="middle" pointer-events="none" font-size="8px" fill="#000000" x="74.00096766312707" y="3" font-family="sans-serif">DESTINATION</text></g><g class="relationship" transform="translate(112.02864116316562 300.8052371320793) rotate(256.45143235603194)"><path class="outline" fill="#A5ABB6" stroke="none" d="M 25 0.5 L 68.77764956899357 0.5 L 68.77764956899357 -0.5 L 25 -0.5 Z M 103.22296206899357 0.5 L 147.00061163798713 0.5 L 147.00061163798713 3.5 L 154.00061163798713 0 L 147.00061163798713 -3.5 L 147.00061163798713 -0.5 L 103.22296206899357 -0.5 Z"/><text text-anchor="middle" pointer-events="none" font-size="8px" fill="#000000" x="86.00030581899357" y="3" transform="rotate(180 86.00030581899357 0)" font-family="sans-serif">ORIGIN</text></g><g class="relationship" transform="translate(112.02864116316562 300.8052371320793) rotate(462.79336131346605)"><path class="outline" fill="#A5ABB6" stroke="none" d="M 25 0.5 L 26.903050869619705 0.5 L 26.903050869619705 -0.5 L 25 -0.5 Z M 70.2389883696197 0.5 L 72.14203923923941 0.5 L 72.14203923923941 3.5 L 79.14203923923941 0 L 72.14203923923941 -3.5 L 72.14203923923941 -0.5 L 70.2389883696197 -0.5 Z"/><text text-anchor="middle" pointer-events="none" font-size="8px" fill="#000000" x="48.571019619619705" y="3" transform="rotate(180 48.571019619619705 0)" font-family="sans-serif">DESTIN…</text></g><g class="relationship" transform="translate(97.69192490489878 -34.16563390069198) rotate(459.7296460268436)"><path class="outline" fill="#A5ABB6" stroke="none" d="M 25 0.5 L 60.9275597914357 0.5 L 60.9275597914357 -0.5 L 25 -0.5 Z M 95.3728722914357 0.5 L 131.3004320828714 0.5 L 131.3004320828714 3.5 L 138.3004320828714 0 L 131.3004320828714 -3.5 L 131.3004320828714 -0.5 L 95.3728722914357 -0.5 Z"/><text text-anchor="middle" pointer-events="none" font-size="8px" fill="#000000" x="78.1502160414357" y="3" transform="rotate(180 78.1502160414357 0)" font-family="sans-serif">ORIGIN</text></g><g class="relationship" transform="translate(97.69192490489878 -34.16563390069198) rotate(284.12884087383975)"><path class="outline" fill="#A5ABB6" stroke="none" d="M 25 0.5 L 46.316159537954206 0.5 L 46.316159537954206 -0.5 L 25 -0.5 Z M 105.5075657879542 0.5 L 126.82372532590841 0.5 L 126.82372532590841 3.5 L 133.8237253259084 0 L 126.82372532590841 -3.5 L 126.82372532590841 -0.5 L 105.5075657879542 -0.5 Z"/><text text-anchor="middle" pointer-events="none" font-size="8px" fill="#000000" x="75.9118626629542" y="3" font-family="sans-serif">DESTINATION</text></g><g class="relationship" transform="translate(219.11260309871895 4.499880530561832) rotate(500.6273364899397)"><path class="outline" fill="#A5ABB6" stroke="none" d="M 25 0.5 L 75.66243305497649 0.5 L 75.66243305497649 -0.5 L 25 -0.5 Z M 110.10774555497649 0.5 L 160.77017860995298 0.5 L 160.77017860995298 3.5 L 167.77017860995298 0 L 160.77017860995298 -3.5 L 160.77017860995298 -0.5 L 110.10774555497649 -0.5 Z"/><text text-anchor="middle" pointer-events="none" font-size="8px" fill="#000000" x="92.88508930497649" y="3" transform="rotate(180 92.88508930497649 0)" font-family="sans-serif">ORIGIN</text></g><g class="relationship" transform="translate(219.11260309871895 4.499880530561832) rotate(321.9765705512913)"><path class="outline" fill="#A5ABB6" stroke="none" d="M 25 0.5 L 26.179817687933948 0.5 L 26.179817687933948 -0.5 L 25 -0.5 Z M 69.51575518793395 0.5 L 70.6955728758679 0.5 L 70.6955728758679 3.5 L 77.6955728758679 0 L 70.6955728758679 -3.5 L 70.6955728758679 -0.5 L 69.51575518793395 -0.5 Z"/><text text-anchor="middle" pointer-events="none" font-size="8px" fill="#000000" x="47.84778643793395" y="3" font-family="sans-serif">DESTIN…</text></g><g class="relationship" transform="translate(-37.858656934990314 54.925112217430964) rotate(393.65043604270295)"><path class="outline" fill="#A5ABB6" stroke="none" d="M 25 0.5 L 44.119083966936444 0.5 L 44.119083966936444 -0.5 L 25 -0.5 Z M 78.56439646693644 0.5 L 97.68348043387289 0.5 L 97.68348043387289 3.5 L 104.68348043387289 0 L 97.68348043387289 -3.5 L 97.68348043387289 -0.5 L 78.56439646693644 -0.5 Z"/><text text-anchor="middle" pointer-events="none" font-size="8px" fill="#000000" x="61.341740216936444" y="3" font-family="sans-serif">ORIGIN</text></g><g class="relationship" transform="translate(-37.858656934990314 54.925112217430964) rotate(215.96999785227024)"><path class="outline" fill="#A5ABB6" stroke="none" d="M 25 0.5 L 47.19939773981591 0.5 L 47.19939773981591 -0.5 L 25 -0.5 Z M 106.39080398981591 0.5 L 128.59020172963181 0.5 L 128.59020172963181 3.5 L 135.59020172963181 0 L 128.59020172963181 -3.5 L 128.59020172963181 -0.5 L 106.39080398981591 -0.5 Z"/><text text-anchor="middle" pointer-events="none" font-size="8px" fill="#000000" x="76.79510086481591" y="3" transform="rotate(180 76.79510086481591 0)" font-family="sans-serif">DESTINATION</text></g><g class="relationship" transform="translate(37.705866643730474 -33.383273198863485) rotate(438.5681680208065)"><path class="outline" fill="#A5ABB6" stroke="none" d="M 25 0.5 L 60.9828744124282 0.5 L 60.9828744124282 -0.5 L 25 -0.5 Z M 95.4281869124282 0.5 L 131.4110613248564 0.5 L 131.4110613248564 3.5 L 138.4110613248564 0 L 131.4110613248564 -3.5 L 131.4110613248564 -0.5 L 95.4281869124282 -0.5 Z"/><text text-anchor="middle" pointer-events="none" font-size="8px" fill="#000000" x="78.2055306624282" y="3" font-family="sans-serif">ORIGIN</text></g><g class="relationship" transform="translate(37.705866643730474 -33.383273198863485) rotate(254.70269464441174)"><path class="outline" fill="#A5ABB6" stroke="none" d="M 25 0.5 L 45.11242509757922 0.5 L 45.11242509757922 -0.5 L 25 -0.5 Z M 104.30383134757922 0.5 L 124.41625644515844 0.5 L 124.41625644515844 3.5 L 131.41625644515844 0 L 124.41625644515844 -3.5 L 124.41625644515844 -0.5 L 104.30383134757922 -0.5 Z"/><text text-anchor="middle" pointer-events="none" font-size="8px" fill="#000000" x="74.70812822257922" y="3" transform="rotate(180 74.70812822257922 0)" font-family="sans-serif">DESTINATION</text></g><g class="relationship" transform="translate(138.3469173684927 247.04647614831993) rotate(240.42336217672533)"><path class="outline" fill="#A5ABB6" stroke="none" d="M 25 0.5 L 48.41674975183318 0.5 L 48.41674975183318 -0.5 L 25 -0.5 Z M 82.86206225183318 0.5 L 106.27881200366636 0.5 L 106.27881200366636 3.5 L 113.27881200366636 0 L 106.27881200366636 -3.5 L 106.27881200366636 -0.5 L 82.86206225183318 -0.5 Z"/><text text-anchor="middle" pointer-events="none" font-size="8px" fill="#000000" x="65.63940600183318" y="3" transform="rotate(180 65.63940600183318 0)" font-family="sans-serif">ORIGIN</text></g><g class="relationship" transform="translate(138.3469173684927 247.04647614831993) rotate(467.6368782840486)"><path class="outline" fill="#A5ABB6" stroke="none" d="M 25 0.5 L 48.39230956805147 0.5 L 48.39230956805147 -0.5 L 25 -0.5 Z M 107.58371581805147 0.5 L 130.97602538610295 0.5 L 130.97602538610295 3.5 L 137.97602538610295 0 L 130.97602538610295 -3.5 L 130.97602538610295 -0.5 L 107.58371581805147 -0.5 Z"/><text text-anchor="middle" pointer-events="none" font-size="8px" fill="#000000" x="77.98801269305147" y="3" transform="rotate(180 77.98801269305147 0)" font-family="sans-serif">DESTINATION</text></g><g class="relationship" transform="translate(164.22959626867637 -19.441376811532297) rotate(482.7718322919637)"><path class="outline" fill="#A5ABB6" stroke="none" d="M 25 0.5 L 66.23118549926551 0.5 L 66.23118549926551 -0.5 L 25 -0.5 Z M 100.67649799926551 0.5 L 141.90768349853101 0.5 L 141.90768349853101 3.5 L 148.90768349853101 0 L 141.90768349853101 -3.5 L 141.90768349853101 -0.5 L 100.67649799926551 -0.5 Z"/><text text-anchor="middle" pointer-events="none" font-size="8px" fill="#000000" x="83.45384174926551" y="3" transform="rotate(180 83.45384174926551 0)" font-family="sans-serif">ORIGIN</text></g><g class="relationship" transform="translate(164.22959626867637 -19.441376811532297) rotate(343.85094372036747)"><path class="outline" fill="#A5ABB6" stroke="none" d="M 25 0.5 L 37.584418618246076 0.5 L 37.584418618246076 -0.5 L 25 -0.5 Z M 96.77582486824608 0.5 L 109.36024348649215 0.5 L 109.36024348649215 3.5 L 116.36024348649215 0 L 109.36024348649215 -3.5 L 109.36024348649215 -0.5 L 96.77582486824608 -0.5 Z"/><text text-anchor="middle" pointer-events="none" font-size="8px" fill="#000000" x="67.18012174324608" y="3" font-family="sans-serif">DESTINATION</text></g><g class="relationship" transform="translate(-31.411197558223414 -9.159995141717168) rotate(413.2527524419793)"><path class="outline" fill="#A5ABB6" stroke="none" d="M 25 0.5 L 64.10753553054408 0.5 L 64.10753553054408 -0.5 L 25 -0.5 Z M 98.55284803054408 0.5 L 137.66038356108817 0.5 L 137.66038356108817 3.5 L 144.66038356108817 0 L 137.66038356108817 -3.5 L 137.66038356108817 -0.5 L 98.55284803054408 -0.5 Z"/><text text-anchor="middle" pointer-events="none" font-size="8px" fill="#000000" x="81.33019178054408" y="3" font-family="sans-serif">ORIGIN</text></g><g class="relationship" transform="translate(-31.411197558223414 -9.159995141717168) rotate(192.498584598516)"><path class="outline" fill="#A5ABB6" stroke="none" d="M 25 0.5 L 36.76852002158719 0.5 L 36.76852002158719 -0.5 L 25 -0.5 Z M 95.9599262715872 0.5 L 107.72844629317439 0.5 L 107.72844629317439 3.5 L 114.72844629317439 0 L 107.72844629317439 -3.5 L 107.72844629317439 -0.5 L 95.9599262715872 -0.5 Z"/><text text-anchor="middle" pointer-events="none" font-size="8px" fill="#000000" x="66.3642231465872" y="3" transform="rotate(180 66.3642231465872 0)" font-family="sans-serif">DESTINATION</text></g><g class="relationship" transform="translate(52.263917934076204 305.00215020591867) rotate(275.71336599269864)"><path class="outline" fill="#A5ABB6" stroke="none" d="M 25 0.5 L 68.83032941405713 0.5 L 68.83032941405713 -0.5 L 25 -0.5 Z M 103.27564191405713 0.5 L 147.10597132811426 0.5 L 147.10597132811426 3.5 L 154.10597132811426 0 L 147.10597132811426 -3.5 L 147.10597132811426 -0.5 L 103.27564191405713 -0.5 Z"/><text text-anchor="middle" pointer-events="none" font-size="8px" fill="#000000" x="86.05298566405713" y="3" font-family="sans-serif">ORIGIN</text></g><g class="relationship" transform="translate(52.263917934076204 305.00215020591867) rotate(429.3439010092769)"><path class="outline" fill="#A5ABB6" stroke="none" d="M 25 0.5 L 26.856335700099763 0.5 L 26.856335700099763 -0.5 L 25 -0.5 Z M 70.19227320009976 0.5 L 72.04860890019953 0.5 L 72.04860890019953 3.5 L 79.04860890019953 0 L 72.04860890019953 -3.5 L 72.04860890019953 -0.5 L 70.19227320009976 -0.5 Z"/><text text-anchor="middle" pointer-events="none" font-size="8px" fill="#000000" x="48.52430445009976" y="3" font-family="sans-serif">DESTIN…</text></g><g class="relationship" transform="translate(-71.33587289413349 214.45579416085266) rotate(328.20600197739395)"><path class="outline" fill="#A5ABB6" stroke="none" d="M 25 0.5 L 62.47663617086937 0.5 L 62.47663617086937 -0.5 L 25 -0.5 Z M 96.92194867086937 0.5 L 134.39858484173874 0.5 L 134.39858484173874 3.5 L 141.39858484173874 0 L 134.39858484173874 -3.5 L 134.39858484173874 -0.5 L 96.92194867086937 -0.5 Z"/><text text-anchor="middle" pointer-events="none" font-size="8px" fill="#000000" x="79.69929242086937" y="3" font-family="sans-serif">ORIGIN</text></g><g class="relationship" transform="translate(-71.33587289413349 214.45579416085266) rotate(530.8256696895896)"><path class="outline" fill="#A5ABB6" stroke="none" d="M 25 0.5 L 35.078489761477755 0.5 L 35.078489761477755 -0.5 L 25 -0.5 Z M 94.26989601147775 0.5 L 104.34838577295551 0.5 L 104.34838577295551 3.5 L 111.34838577295551 0 L 104.34838577295551 -3.5 L 104.34838577295551 -0.5 L 94.26989601147775 -0.5 Z"/><text text-anchor="middle" pointer-events="none" font-size="8px" fill="#000000" x="64.67419288647775" y="3" transform="rotate(180 64.67419288647775 0)" font-family="sans-serif">DESTINATION</text></g><g class="relationship" transform="translate(-92.82078381482911 158.5177525433371) rotate(348.9781885348764)"><path class="outline" fill="#A5ABB6" stroke="none" d="M 25 0.5 L 62.265624612158234 0.5 L 62.265624612158234 -0.5 L 25 -0.5 Z M 96.71093711215823 0.5 L 133.97656172431647 0.5 L 133.97656172431647 3.5 L 140.97656172431647 0 L 133.97656172431647 -3.5 L 133.97656172431647 -0.5 L 96.71093711215823 -0.5 Z"/><text text-anchor="middle" pointer-events="none" font-size="8px" fill="#000000" x="79.48828086215823" y="3" font-family="sans-serif">ORIGIN</text></g><g class="relationship" transform="translate(-92.82078381482911 158.5177525433371) rotate(505.52320866662006)"><path class="outline" fill="#A5ABB6" stroke="none" d="M 25 0.5 L 35.51503041564119 0.5 L 35.51503041564119 -0.5 L 25 -0.5 Z M 94.70643666564119 0.5 L 105.22146708128238 0.5 L 105.22146708128238 3.5 L 112.22146708128238 0 L 105.22146708128238 -3.5 L 105.22146708128238 -0.5 L 94.70643666564119 -0.5 Z"/><text text-anchor="middle" pointer-events="none" font-size="8px" fill="#000000" x="65.11073354064119" y="3" transform="rotate(180 65.11073354064119 0)" font-family="sans-serif">DESTINATION</text></g><g class="relationship" transform="translate(18.733012264484774 255.4872448525998) rotate(291.75561268058095)"><path class="outline" fill="#A5ABB6" stroke="none" d="M 25 0.5 L 48.56300340300558 0.5 L 48.56300340300558 -0.5 L 25 -0.5 Z M 83.00831590300558 0.5 L 106.57131930601116 0.5 L 106.57131930601116 3.5 L 113.57131930601116 0 L 106.57131930601116 -3.5 L 106.57131930601116 -0.5 L 83.00831590300558 -0.5 Z"/><text text-anchor="middle" pointer-events="none" font-size="8px" fill="#000000" x="65.78565965300558" y="3" font-family="sans-serif">ORIGIN</text></g><g class="relationship" transform="translate(18.733012264484774 255.4872448525998) rotate(424.44306422538796)"><path class="outline" fill="#A5ABB6" stroke="none" d="M 25 0.5 L 48.30626013379418 0.5 L 48.30626013379418 -0.5 L 25 -0.5 Z M 107.49766638379418 0.5 L 130.80392651758837 0.5 L 130.80392651758837 3.5 L 137.80392651758837 0 L 130.80392651758837 -3.5 L 130.80392651758837 -0.5 L 107.49766638379418 -0.5 Z"/><text text-anchor="middle" pointer-events="none" font-size="8px" fill="#000000" x="77.90196325879418" y="3" font-family="sans-serif">DESTINATION</text></g><g class="relationship" transform="translate(-84.8052508305126 18.002234719682846) rotate(395.07981148577323)"><path class="outline" fill="#A5ABB6" stroke="none" d="M 25 0.5 L 73.91843473141942 0.5 L 73.91843473141942 -0.5 L 25 -0.5 Z M 108.36374723141942 0.5 L 157.28218196283885 0.5 L 157.28218196283885 3.5 L 164.28218196283885 0 L 157.28218196283885 -3.5 L 157.28218196283885 -0.5 L 108.36374723141942 -0.5 Z"/><text text-anchor="middle" pointer-events="none" font-size="8px" fill="#000000" x="91.14109098141942" y="3" font-family="sans-serif">ORIGIN</text></g><g class="relationship" transform="translate(-84.8052508305126 18.002234719682846) rotate(214.65975602869912)"><path class="outline" fill="#A5ABB6" stroke="none" d="M 25 0.5 L 25.299269984856714 0.5 L 25.299269984856714 -0.5 L 25 -0.5 Z M 68.63520748485672 0.5 L 68.93447746971343 0.5 L 68.93447746971343 3.5 L 75.93447746971343 0 L 68.93447746971343 -3.5 L 68.93447746971343 -0.5 L 68.63520748485672 -0.5 Z"/><text text-anchor="middle" pointer-events="none" font-size="8px" fill="#000000" x="46.967238734856714" y="3" transform="rotate(180 46.967238734856714 0)" font-family="sans-serif">DESTIN…</text></g><g class="relationship" transform="translate(-94.75123468936802 77.09681994067684) rotate(376.774291710336)"><path class="outline" fill="#A5ABB6" stroke="none" d="M 25 0.5 L 65.36311572376461 0.5 L 65.36311572376461 -0.5 L 25 -0.5 Z M 99.80842822376461 0.5 L 140.17154394752922 0.5 L 140.17154394752922 3.5 L 147.17154394752922 0 L 140.17154394752922 -3.5 L 140.17154394752922 -0.5 L 99.80842822376461 -0.5 Z"/><text text-anchor="middle" pointer-events="none" font-size="8px" fill="#000000" x="82.58577197376461" y="3" font-family="sans-serif">ORIGIN</text></g><g class="relationship" transform="translate(-94.75123468936802 77.09681994067684) rotate(237.90031922609222)"><path class="outline" fill="#A5ABB6" stroke="none" d="M 25 0.5 L 35.664062146948666 0.5 L 35.664062146948666 -0.5 L 25 -0.5 Z M 94.85546839694867 0.5 L 105.51953054389733 0.5 L 105.51953054389733 3.5 L 112.51953054389733 0 L 105.51953054389733 -3.5 L 105.51953054389733 -0.5 L 94.85546839694867 -0.5 Z"/><text text-anchor="middle" pointer-events="none" font-size="8px" fill="#000000" x="65.25976527194867" y="3" transform="rotate(180 65.25976527194867 0)" font-family="sans-serif">DESTINATION</text></g><g class="relationship" transform="translate(-7.560543354550989 309.21185996123626) rotate(293.0584094326949)"><path class="outline" fill="#A5ABB6" stroke="none" d="M 25 0.5 L 78.41045434233665 0.5 L 78.41045434233665 -0.5 L 25 -0.5 Z M 112.85576684233665 0.5 L 166.2662211846733 0.5 L 166.2662211846733 3.5 L 173.2662211846733 0 L 166.2662211846733 -3.5 L 166.2662211846733 -0.5 L 112.85576684233665 -0.5 Z"/><text text-anchor="middle" pointer-events="none" font-size="8px" fill="#000000" x="95.63311059233665" y="3" font-family="sans-serif">ORIGIN</text></g><g class="relationship" transform="translate(-7.560543354550989 309.21185996123626) rotate(403.9796180083836)"><path class="outline" fill="#A5ABB6" stroke="none" d="M 25 0.5 L 33.97642078277387 0.5 L 33.97642078277387 -0.5 L 25 -0.5 Z M 93.16782703277387 0.5 L 102.14424781554774 0.5 L 102.14424781554774 3.5 L 109.14424781554774 0 L 102.14424781554774 -3.5 L 102.14424781554774 -0.5 L 93.16782703277387 -0.5 Z"/><text text-anchor="middle" pointer-events="none" font-size="8px" fill="#000000" x="63.57212390777387" y="3" font-family="sans-serif">DESTINATION</text></g><g class="relationship" transform="translate(229.61273050015885 63.46652107964878) rotate(518.3498533626173)"><path class="outline" fill="#A5ABB6" stroke="none" d="M 25 0.5 L 65.0903522560081 0.5 L 65.0903522560081 -0.5 L 25 -0.5 Z M 99.5356647560081 0.5 L 139.6260170120162 0.5 L 139.6260170120162 3.5 L 146.6260170120162 0 L 139.6260170120162 -3.5 L 139.6260170120162 -0.5 L 99.5356647560081 -0.5 Z"/><text text-anchor="middle" pointer-events="none" font-size="8px" fill="#000000" x="82.3130085060081" y="3" transform="rotate(180 82.3130085060081 0)" font-family="sans-serif">ORIGIN</text></g><g class="relationship" transform="translate(229.61273050015885 63.46652107964878) rotate(299.94101911800544)"><path class="outline" fill="#A5ABB6" stroke="none" d="M 25 0.5 L 37.42930699533571 0.5 L 37.42930699533571 -0.5 L 25 -0.5 Z M 96.62071324533571 0.5 L 109.05002024067142 0.5 L 109.05002024067142 3.5 L 116.05002024067142 0 L 109.05002024067142 -3.5 L 109.05002024067142 -0.5 L 96.62071324533571 -0.5 Z"/><text text-anchor="middle" pointer-events="none" font-size="8px" fill="#000000" x="67.02501012033571" y="3" font-family="sans-serif">DESTINATION</text></g><g class="relationship" transform="translate(171.23475409599385 40.31060244447799) rotate(499.46949869858054)"><path class="outline" fill="#A5ABB6" stroke="none" d="M 25 0.5 L 45.81188335941151 0.5 L 45.81188335941151 -0.5 L 25 -0.5 Z M 80.25719585941151 0.5 L 101.06907921882302 0.5 L 101.06907921882302 3.5 L 108.06907921882302 0 L 101.06907921882302 -3.5 L 101.06907921882302 -0.5 L 80.25719585941151 -0.5 Z"/><text text-anchor="middle" pointer-events="none" font-size="8px" fill="#000000" x="63.03453960941151" y="3" transform="rotate(180 63.03453960941151 0)" font-family="sans-serif">ORIGIN</text></g><g class="relationship" transform="translate(171.23475409599385 40.31060244447799) rotate(322.42857675877525)"><path class="outline" fill="#A5ABB6" stroke="none" d="M 25 0.5 L 48.14212257941695 0.5 L 48.14212257941695 -0.5 L 25 -0.5 Z M 107.33352882941695 0.5 L 130.4756514088339 0.5 L 130.4756514088339 3.5 L 137.4756514088339 0 L 130.4756514088339 -3.5 L 130.4756514088339 -0.5 L 107.33352882941695 -0.5 Z"/><text text-anchor="middle" pointer-events="none" font-size="8px" fill="#000000" x="77.73782570441695" y="3" font-family="sans-serif">DESTINATION</text></g></g><g class="layer nodes"><g class="node" transform="translate(70.0942530566071,126.78591044420241)"><circle class="outline" cx="0" cy="0" r="25" fill="#ECB5C9" stroke="#da7298" stroke-width="2px"/><text text-anchor="middle" pointer-events="none" font-family="sans-serif" dy="1.5625" font-size="25" fill="#2A2C34"/><text text-anchor="middle" pointer-events="none" x="0" y="5" font-size="10px" fill="#2A2C34" font-family="sans-serif"> LAX</text></g><g class="node" transform="translate(391.3085764598524,117.79965299374645)"><circle class="outline" cx="0" cy="0" r="25" fill="#ECB5C9" stroke="#da7298" stroke-width="2px"/><text text-anchor="middle" pointer-events="none" font-family="sans-serif" dy="1.5625" font-size="25" fill="#2A2C34"/><text text-anchor="middle" pointer-events="none" x="0" y="5" font-size="10px" fill="#2A2C34" font-family="sans-serif"> LAS</text></g><g class="node" transform="translate(88.96789574146186,402.3619521119498)"><circle class="outline" cx="0" cy="0" r="25" fill="#ECB5C9" stroke="#da7298" stroke-width="2px"/><text text-anchor="middle" pointer-events="none" font-family="sans-serif" dy="1.5625" font-size="25" fill="#2A2C34"/><text text-anchor="middle" pointer-events="none" x="0" y="5" font-size="10px" fill="#2A2C34" font-family="sans-serif"> ABQ</text></g><g class="node" transform="translate(361.1303566978772,266.594517062155)"><circle class="outline" cx="0" cy="0" r="25" fill="#ECB5C9" stroke="#da7298" stroke-width="2px"/><text text-anchor="middle" pointer-events="none" font-family="sans-serif" dy="1.5625" font-size="25" fill="#2A2C34"/><text text-anchor="middle" pointer-events="none" x="0" y="5" font-size="10px" fill="#2A2C34" font-family="sans-serif"> IAH</text></g><g class="node" transform="translate(136.4613018944964,-188.1848246992352)"><circle class="outline" cx="0" cy="0" r="25" fill="#ECB5C9" stroke="#da7298" stroke-width="2px"/><text text-anchor="middle" pointer-events="none" font-family="sans-serif" dy="1.5625" font-size="25" fill="#2A2C34"/><text text-anchor="middle" pointer-events="none" x="0" y="5" font-size="10px" fill="#2A2C34" font-family="sans-serif"> EWR</text></g><g class="node" transform="translate(300.01195778632757,-58.758914110430105)"><circle class="outline" cx="0" cy="0" r="25" fill="#ECB5C9" stroke="#da7298" stroke-width="2px"/><text text-anchor="middle" pointer-events="none" font-family="sans-serif" dy="1.5625" font-size="25" fill="#2A2C34"/><text text-anchor="middle" pointer-events="none" x="0" y="5" font-size="10px" fill="#2A2C34" font-family="sans-serif"> FAT</text></g><g class="node" transform="translate(-167.82826881345326,-39.39939615513115)"><circle class="outline" cx="0" cy="0" r="25" fill="#ECB5C9" stroke="#da7298" stroke-width="2px"/><text text-anchor="middle" pointer-events="none" font-family="sans-serif" dy="1.5625" font-size="25" fill="#2A2C34"/><text text-anchor="middle" pointer-events="none" x="0" y="5" font-size="10px" fill="#2A2C34" font-family="sans-serif"> SMF</text></g><g class="node" transform="translate(-3.5610723682201457,-184.25767468865072)"><circle class="outline" cx="0" cy="0" r="25" fill="#ECB5C9" stroke="#da7298" stroke-width="2px"/><text text-anchor="middle" pointer-events="none" font-family="sans-serif" dy="1.5625" font-size="25" fill="#2A2C34"/><text text-anchor="middle" pointer-events="none" x="0" y="5" font-size="10px" fill="#2A2C34" font-family="sans-serif"> BOS</text></g><g class="node" transform="translate(-205.9400623102411,236.1950327520113)"><circle class="outline" cx="0" cy="0" r="25" fill="#ECB5C9" stroke="#da7298" stroke-width="2px"/><text text-anchor="middle" pointer-events="none" font-family="sans-serif" dy="1.5625" font-size="25" fill="#2A2C34"/><text text-anchor="middle" pointer-events="none" x="0" y="5" font-size="10px" fill="#2A2C34" font-family="sans-serif"> TUS</text></g><g class="node" transform="translate(235.30513545671494,131.52302510624534)"><circle class="outline" cx="0" cy="0" r="25" fill="#4C8EDA" stroke="#2870c2" stroke-width="2px"/><text text-anchor="middle" pointer-events="none" font-family="sans-serif" dy="1.5625" font-size="25" fill="#FFFFFF"/><text text-anchor="middle" pointer-events="none" x="0" y="5" font-size="10px" fill="#FFFFFF" font-family="sans-serif"> 11/29/20…</text></g><g class="node" transform="translate(171.84834637744913,296.57859702641906)"><circle class="outline" cx="0" cy="0" r="25" fill="#4C8EDA" stroke="#2870c2" stroke-width="2px"/><text text-anchor="middle" pointer-events="none" font-family="sans-serif" dy="1.5625" font-size="25" fill="#FFFFFF"/><text text-anchor="middle" pointer-events="none" x="0" y="5" font-size="10px" fill="#FFFFFF" font-family="sans-serif"> 11/3/2015</text></g><g class="node" transform="translate(78.5259296838674,251.21189461584402)"><circle class="outline" cx="0" cy="0" r="25" fill="#4C8EDA" stroke="#2870c2" stroke-width="2px"/><text text-anchor="middle" pointer-events="none" font-family="sans-serif" dy="1.5625" font-size="25" fill="#FFFFFF"/><text text-anchor="middle" pointer-events="none" x="0" y="5" font-size="10px" fill="#FFFFFF" font-family="sans-serif"> 11/1/2015</text></g><g class="node" transform="translate(223.00711497249674,196.25555168622412)"><circle class="outline" cx="0" cy="0" r="25" fill="#4C8EDA" stroke="#2870c2" stroke-width="2px"/><text text-anchor="middle" pointer-events="none" font-family="sans-serif" dy="1.5625" font-size="25" fill="#FFFFFF"/><text text-anchor="middle" pointer-events="none" x="0" y="5" font-size="10px" fill="#FFFFFF" font-family="sans-serif"> 11/30/20…</text></g><g class="node" transform="translate(112.02864116316562,300.8052371320793)"><circle class="outline" cx="0" cy="0" r="25" fill="#4C8EDA" stroke="#2870c2" stroke-width="2px"/><text text-anchor="middle" pointer-events="none" font-family="sans-serif" dy="1.5625" font-size="25" fill="#FFFFFF"/><text text-anchor="middle" pointer-events="none" x="0" y="5" font-size="10px" fill="#FFFFFF" font-family="sans-serif"> 11/4/2015</text></g><g class="node" transform="translate(97.69192490489878,-34.16563390069198)"><circle class="outline" cx="0" cy="0" r="25" fill="#4C8EDA" stroke="#2870c2" stroke-width="2px"/><text text-anchor="middle" pointer-events="none" font-family="sans-serif" dy="1.5625" font-size="25" fill="#FFFFFF"/><text text-anchor="middle" pointer-events="none" x="0" y="5" font-size="10px" fill="#FFFFFF" font-family="sans-serif"> 11/29/20…</text></g><g class="node" transform="translate(219.11260309871895,4.499880530561832)"><circle class="outline" cx="0" cy="0" r="25" fill="#4C8EDA" stroke="#2870c2" stroke-width="2px"/><text text-anchor="middle" pointer-events="none" font-family="sans-serif" dy="1.5625" font-size="25" fill="#FFFFFF"/><text text-anchor="middle" pointer-events="none" x="0" y="5" font-size="10px" fill="#FFFFFF" font-family="sans-serif"> 11/2/2015</text></g><g class="node" transform="translate(-37.858656934990314,54.925112217430964)"><circle class="outline" cx="0" cy="0" r="25" fill="#4C8EDA" stroke="#2870c2" stroke-width="2px"/><text text-anchor="middle" pointer-events="none" font-family="sans-serif" dy="1.5625" font-size="25" fill="#FFFFFF"/><text text-anchor="middle" pointer-events="none" x="0" y="5" font-size="10px" fill="#FFFFFF" font-family="sans-serif"> 11/3/2015</text></g><g class="node" transform="translate(37.705866643730474,-33.383273198863485)"><circle class="outline" cx="0" cy="0" r="25" fill="#4C8EDA" stroke="#2870c2" stroke-width="2px"/><text text-anchor="middle" pointer-events="none" font-family="sans-serif" dy="1.5625" font-size="25" fill="#FFFFFF"/><text text-anchor="middle" pointer-events="none" x="0" y="5" font-size="10px" fill="#FFFFFF" font-family="sans-serif"> 11/29/20…</text></g><g class="node" transform="translate(138.3469173684927,247.04647614831993)"><circle class="outline" cx="0" cy="0" r="25" fill="#4C8EDA" stroke="#2870c2" stroke-width="2px"/><text text-anchor="middle" pointer-events="none" font-family="sans-serif" dy="1.5625" font-size="25" fill="#FFFFFF"/><text text-anchor="middle" pointer-events="none" x="0" y="5" font-size="10px" fill="#FFFFFF" font-family="sans-serif"> 11/2/2015</text></g><g class="node" transform="translate(164.22959626867637,-19.441376811532297)"><circle class="outline" cx="0" cy="0" r="25" fill="#4C8EDA" stroke="#2870c2" stroke-width="2px"/><text text-anchor="middle" pointer-events="none" font-family="sans-serif" dy="1.5625" font-size="25" fill="#FFFFFF"/><text text-anchor="middle" pointer-events="none" x="0" y="5" font-size="10px" fill="#FFFFFF" font-family="sans-serif"> 11/3/2015</text></g><g class="node" transform="translate(-31.411197558223414,-9.159995141717168)"><circle class="outline" cx="0" cy="0" r="25" fill="#4C8EDA" stroke="#2870c2" stroke-width="2px"/><text text-anchor="middle" pointer-events="none" font-family="sans-serif" dy="1.5625" font-size="25" fill="#FFFFFF"/><text text-anchor="middle" pointer-events="none" x="0" y="5" font-size="10px" fill="#FFFFFF" font-family="sans-serif"> 11/1/2015</text></g><g class="node" transform="translate(52.263917934076204,305.00215020591867)"><circle class="outline" cx="0" cy="0" r="25" fill="#4C8EDA" stroke="#2870c2" stroke-width="2px"/><text text-anchor="middle" pointer-events="none" font-family="sans-serif" dy="1.5625" font-size="25" fill="#FFFFFF"/><text text-anchor="middle" pointer-events="none" x="0" y="5" font-size="10px" fill="#FFFFFF" font-family="sans-serif"> 11/2/2015</text></g><g class="node" transform="translate(-71.33587289413349,214.45579416085266)"><circle class="outline" cx="0" cy="0" r="25" fill="#4C8EDA" stroke="#2870c2" stroke-width="2px"/><text text-anchor="middle" pointer-events="none" font-family="sans-serif" dy="1.5625" font-size="25" fill="#FFFFFF"/><text text-anchor="middle" pointer-events="none" x="0" y="5" font-size="10px" fill="#FFFFFF" font-family="sans-serif"> 11/2/2015</text></g><g class="node" transform="translate(-92.82078381482911,158.5177525433371)"><circle class="outline" cx="0" cy="0" r="25" fill="#4C8EDA" stroke="#2870c2" stroke-width="2px"/><text text-anchor="middle" pointer-events="none" font-family="sans-serif" dy="1.5625" font-size="25" fill="#FFFFFF"/><text text-anchor="middle" pointer-events="none" x="0" y="5" font-size="10px" fill="#FFFFFF" font-family="sans-serif"> 11/1/2015</text></g><g class="node" transform="translate(18.733012264484774,255.4872448525998)"><circle class="outline" cx="0" cy="0" r="25" fill="#4C8EDA" stroke="#2870c2" stroke-width="2px"/><text text-anchor="middle" pointer-events="none" font-family="sans-serif" dy="1.5625" font-size="25" fill="#FFFFFF"/><text text-anchor="middle" pointer-events="none" x="0" y="5" font-size="10px" fill="#FFFFFF" font-family="sans-serif"> 11/3/2015</text></g><g class="node" transform="translate(-84.8052508305126,18.002234719682846)"><circle class="outline" cx="0" cy="0" r="25" fill="#4C8EDA" stroke="#2870c2" stroke-width="2px"/><text text-anchor="middle" pointer-events="none" font-family="sans-serif" dy="1.5625" font-size="25" fill="#FFFFFF"/><text text-anchor="middle" pointer-events="none" x="0" y="5" font-size="10px" fill="#FFFFFF" font-family="sans-serif"> 11/4/2015</text></g><g class="node" transform="translate(-94.75123468936802,77.09681994067684)"><circle class="outline" cx="0" cy="0" r="25" fill="#4C8EDA" stroke="#2870c2" stroke-width="2px"/><text text-anchor="middle" pointer-events="none" font-family="sans-serif" dy="1.5625" font-size="25" fill="#FFFFFF"/><text text-anchor="middle" pointer-events="none" x="0" y="5" font-size="10px" fill="#FFFFFF" font-family="sans-serif"> 11/2/2015</text></g><g class="node" transform="translate(-7.560543354550989,309.21185996123626)"><circle class="outline" cx="0" cy="0" r="25" fill="#4C8EDA" stroke="#2870c2" stroke-width="2px"/><text text-anchor="middle" pointer-events="none" font-family="sans-serif" dy="1.5625" font-size="25" fill="#FFFFFF"/><text text-anchor="middle" pointer-events="none" x="0" y="5" font-size="10px" fill="#FFFFFF" font-family="sans-serif"> 11/1/2015</text></g><g class="node" transform="translate(229.61273050015885,63.46652107964878)"><circle class="outline" cx="0" cy="0" r="25" fill="#4C8EDA" stroke="#2870c2" stroke-width="2px"/><text text-anchor="middle" pointer-events="none" font-family="sans-serif" dy="1.5625" font-size="25" fill="#FFFFFF"/><text text-anchor="middle" pointer-events="none" x="0" y="5" font-size="10px" fill="#FFFFFF" font-family="sans-serif"> 11/1/2015</text></g><g class="node" transform="translate(171.23475409599385,40.31060244447799)"><circle class="outline" cx="0" cy="0" r="25" fill="#4C8EDA" stroke="#2870c2" stroke-width="2px"/><text text-anchor="middle" pointer-events="none" font-family="sans-serif" dy="1.5625" font-size="25" fill="#FFFFFF"/><text text-anchor="middle" pointer-events="none" x="0" y="5" font-size="10px" fill="#FFFFFF" font-family="sans-serif"> 11/4/2015</text></g></g></svg>