<svg xmlns="http://www.w3.org/2000/svg" width="388.858642578125" height="347.2479248046875" viewBox="-81.31788635253906 -80.77452087402344 388.858642578125 347.2479248046875"><title>Neo4j Graph Visualization</title><desc>Created using Neo4j (http://www.neo4j.com/)</desc><g class="layer relationships"><g class="relationship" transform="translate(42.45864989420653 20.048294097500225) rotate(368.74212573152954)"><path class="outline" fill="#A5ABB6" stroke="none" d="M 24.018736134675446,-6.953439040707552 L 24.277555179777966,-5.987513214418485 A 115.03625114159101 115.03625114159101 0 0 1 41.35920838171796,-9.204986610719288 L 41.24887864352892,-10.198881649881443 A 116.03625114159101 116.03625114159101 0 0 0 24.018736134675446,-6.953439040707552 Z M 63.3198552399166,-10.53650298896639 L 63.239977380227835,-9.53969833030375 A 115.03625114159101 115.03625114159101 0 0 1 80.41205104549935,-6.846206692719086 L 79.72459149431921,-3.9260355735051435 L 87.34036024886191,-5.728829593167768 L 81.3286637804062,-10.739768185004344 L 80.64120422922606,-7.819597065790401 A 116.03625114159101 116.03625114159101 0 0 0 63.3198552399166,-10.53650298896639"/><text text-anchor="middle" pointer-events="none" font-size="8px" fill="#000000" x="52.283968136254046" y="-7.393763023930532" font-family="sans-serif">road</text></g><g class="relationship" transform="translate(152.83637346520356 37.02152217936845) rotate(371.65581369644826)"><path class="outline" fill="#A5ABB6" stroke="none" d="M 21.40063509461097,-12.933012701892217 L 21.90063509461097,-12.06698729810778 A 81.44121775154372 81.44121775154372 0 0 1 37.81112895816073,-19.10698651419287 L 37.506490647276046,-20.05945462365446 A 82.44121775154372 82.44121775154372 0 0 0 21.40063509461097,-12.933012701892217 Z M 83.61541895729901,-21.26008892751156 L 83.36076266328129,-20.293057298288844 A 81.44121775154372 81.44121775154372 0 0 1 99.61607729278442,-14.090626303880704 L 98.25332139311467,-11.41800654830093 L 106.07931603908219,-11.356299163914587 L 101.43308515901074,-17.654119311320404 L 100.070329259341,-14.98149955574063 A 82.44121775154372 82.44121775154372 0 0 0 83.61541895729901,-21.26008892751156"/><text text-anchor="middle" pointer-events="none" font-size="8px" fill="#000000" x="60.48829261993552" y="-20.450276216573286" font-family="sans-serif">twowheeler</text></g><g class="relationship" transform="translate(278.54078001682876 62.95256912822058) rotate(218.25507804864827)"><path class="outline" fill="#A5ABB6" stroke="none" d="M 21.40063509461097,12.933012701892217 L 21.90063509461097,12.06698729810778 A 50.03373490667377 50.03373490667377 0 0 0 23.22076977260816,12.8028096381559 L 22.747154664330907,13.683541566276787 A 51.03373490667377 51.03373490667377 0 0 1 21.40063509461097,12.933012701892217 Z M 68.01047262731552,15.207231446374657 L 67.59715837316695,14.296642995252192 A 50.03373490667377 50.03373490667377 0 0 0 68.96378812896674,13.65126466068621 L 67.64190286762411,10.958195898874676 L 75.4679294500841,11.015710511188646 L 70.72630181075692,17.242023009768253 L 69.4044165494143,14.548954247956722 A 51.03373490667377 51.03373490667377 0 0 1 68.01047262731552,15.207231446374657"/><text text-anchor="middle" pointer-events="none" font-size="8px" fill="#000000" x="45.217358707708364" y="22.24162903312977" transform="rotate(180 45.217358707708364 19.24162903312977)" font-family="sans-serif">twowheeler</text></g><g class="relationship" transform="translate(201.6556390734967 2.330161377036486) rotate(466.1589702591972)"><path class="outline" fill="#A5ABB6" stroke="none" d="M 25 0.5 L 63.04655931559779 0.5 L 63.04655931559779 -0.5 L 25 -0.5 Z M 82.38249681559779 0.5 L 120.42905613119558 0.5 L 120.42905613119558 3.5 L 127.42905613119558 0 L 120.42905613119558 -3.5 L 120.42905613119558 -0.5 L 82.38249681559779 -0.5 Z"/><text text-anchor="middle" pointer-events="none" font-size="8px" fill="#000000" x="72.71452806559779" y="3" transform="rotate(180 72.71452806559779 0)" font-family="sans-serif">trek</text></g><g class="relationship" transform="translate(278.54078001682876 62.95256912822058) rotate(218.25507804864827)"><path class="outline" fill="#A5ABB6" stroke="none" d="M 25 0.5 L 34.44922519092344 0.5 L 34.44922519092344 -0.5 L 25 -0.5 Z M 56.46094394092344 0.5 L 65.91016913184689 0.5 L 65.91016913184689 3.5 L 72.91016913184689 0 L 65.91016913184689 -3.5 L 65.91016913184689 -0.5 L 56.46094394092344 -0.5 Z"/><text text-anchor="middle" pointer-events="none" font-size="8px" fill="#000000" x="45.45508456592344" y="3" transform="rotate(180 45.45508456592344 0)" font-family="sans-serif">road</text></g><g class="relationship" transform="translate(278.54078001682876 62.95256912822058) rotate(218.25507804864827)"><path class="outline" fill="#A5ABB6" stroke="none" d="M 21.40063509461097,-12.933012701892217 L 21.90063509461097,-12.06698729810778 A 50.03373490667377 50.03373490667377 0 0 1 35.75625709955744,-17.509457738384114 L 35.53318269847167,-18.484259159997883 A 51.03373490667377 51.03373490667377 0 0 0 21.40063509461097,-12.933012701892217 Z M 54.93054431558958,-19.13722860472069 L 54.77352970981371,-18.149632324060903 A 50.03373490667377 50.03373490667377 0 0 1 68.96378812896674,-13.65126466068621 L 67.64190286762411,-10.958195898874676 L 75.4679294500841,-11.015710511188646 L 70.72630181075692,-17.242023009768253 L 69.4044165494143,-14.548954247956722 A 51.03373490667377 51.03373490667377 0 0 0 54.93054431558958,-19.13722860472069"/><text text-anchor="middle" pointer-events="none" font-size="8px" fill="#000000" x="45.21735870770835" y="-16.24162903312976" transform="rotate(180 45.21735870770835 -19.24162903312976)" font-family="sans-serif">trek</text></g><g class="relationship" transform="translate(152.83637346520356 37.02152217936845) rotate(371.65581369644826)"><path class="outline" fill="#A5ABB6" stroke="none" d="M 25 0.5 L 49.66971429279016 0.5 L 49.66971429279016 -0.5 L 25 -0.5 Z M 71.68143304279016 0.5 L 96.35114733558032 0.5 L 96.35114733558032 3.5 L 103.35114733558032 0 L 96.35114733558032 -3.5 L 96.35114733558032 -0.5 L 71.68143304279016 -0.5 Z"/><text text-anchor="middle" pointer-events="none" font-size="8px" fill="#000000" x="60.67557366779016" y="3" font-family="sans-serif">road</text></g><g class="relationship" transform="translate(152.83637346520356 37.02152217936845) rotate(371.65581369644826)"><path class="outline" fill="#A5ABB6" stroke="none" d="M 21.40063509461097,12.933012701892217 L 21.90063509461097,12.06698729810778 A 81.44121775154372 81.44121775154372 0 0 0 50.932597930794294,22.134885217434885 L 50.78907544473266,23.124532273710358 A 82.44121775154372 82.44121775154372 0 0 1 21.40063509461097,12.933012701892217 Z M 70.19131856407347,23.62974893162587 L 70.09949465850593,22.633973670652637 A 81.44121775154372 81.44121775154372 0 0 0 99.61607729278442,14.090626303880704 L 98.25332139311467,11.41800654830093 L 106.07931603908219,11.356299163914587 L 101.43308515901074,17.654119311320404 L 100.070329259341,14.98149955574063 A 82.44121775154372 82.44121775154372 0 0 1 70.19131856407347,23.62974893162587"/><text text-anchor="middle" pointer-events="none" font-size="8px" fill="#000000" x="60.488292619935535" y="26.450276216573286" font-family="sans-serif">trek</text></g><g class="relationship" transform="translate(42.45864989420653 20.048294097500225) rotate(368.74212573152954)"><path class="outline" fill="#A5ABB6" stroke="none" d="M 24.018736134675446,6.953439040707552 L 24.277555179777966,5.987513214418485 A 115.03625114159101 115.03625114159101 0 0 0 42.68399801461398,9.34428806757019 L 42.58518455603027,10.339394042028545 A 116.03625114159101 116.03625114159101 0 0 1 24.018736134675446,6.953439040707552 Z M 61.97987672252547,10.636076062952995 L 61.911546792937926,9.638413283892575 A 115.03625114159101 115.03625114159101 0 0 0 80.41205104549935,6.846206692719086 L 79.72459149431921,3.9260355735051435 L 87.34036024886191,5.728829593167768 L 81.3286637804062,10.739768185004344 L 80.64120422922606,7.819597065790401 A 116.03625114159101 116.03625114159101 0 0 1 61.97987672252547,10.636076062952995"/><text text-anchor="middle" pointer-events="none" font-size="8px" fill="#000000" x="52.28396813625407" y="13.393763023930532" font-family="sans-serif">trek</text></g><g class="relationship" transform="translate(42.45864989420653 20.048294097500225) rotate(301.2952198336777)"><path class="outline" fill="#A5ABB6" stroke="none" d="M 21.40063509461097,12.933012701892217 L 21.90063509461097,12.06698729810778 A 35.503914982607796 35.503914982607796 0 0 0 28.911607966296216,15.159896355394999 L 28.609078382590297,16.11303635087453 A 36.503914982607796 36.503914982607796 0 0 1 21.40063509461097,12.933012701892217 Z M 47.96419645181197,16.864779744278266 L 47.73650569946782,15.891046248245111 A 35.503914982607796 35.503914982607796 0 0 0 54.96625050975671,13.351239755171916 L 53.672281273011116,10.644647134485156 L 61.49729483081675,10.78307697287998 L 56.69154282541751,16.960029916087592 L 55.39757358867191,14.253437295400834 A 36.503914982607796 36.503914982607796 0 0 1 47.96419645181197,16.864779744278266"/><text text-anchor="middle" pointer-events="none" font-size="8px" fill="#000000" x="38.25527153726687" y="20.296484562115403" font-family="sans-serif">trek</text></g><g class="relationship" transform="translate(86.11939950890472 -51.77452171991781) rotate(494.6767053034978)"><path class="outline" fill="#A5ABB6" stroke="none" d="M 24.018736134675446,-6.953439040707552 L 24.277555179777966,-5.987513214418485 A 186.42558548086177 186.42558548086177 0 0 1 47.250121882317245,-10.61811127426401 L 47.11452930660349,-11.608875955412515 A 187.42558548086177 187.42558548086177 0 0 0 24.018736134675446,-6.953439040707552 Z M 93.58061302964288,-12.153693849672237 L 93.4682880993031,-11.160022319424854 A 186.42558548086177 186.42558548086177 0 0 1 116.54311247171782,-7.069332954943964 L 115.83481272045395,-4.154146603720504 L 123.46326391644988,-5.902497927198859 L 117.48751214006964,-10.956248089908577 L 116.77921238880577,-8.041061738685118 A 187.42558548086177 187.42558548086177 0 0 0 93.58061302964288,-12.153693849672237"/><text text-anchor="middle" pointer-events="none" font-size="8px" fill="#000000" x="70.33648302631738" y="-9.826963322633844" transform="rotate(180 70.33648302631738 -12.826963322633844)" font-family="sans-serif">twowheeler</text></g><g class="relationship" transform="translate(-17.769019690246477 53.29295552940057) rotate(418.0306647925037)"><path class="outline" fill="#A5ABB6" stroke="none" d="M 24.018736134675446,-6.953439040707552 L 24.277555179777966,-5.987513214418485 A 121.69502488312865 121.69502488312865 0 0 1 31.0012187781177,-7.585951722317375 L 30.797649843730856,-8.565012337883445 A 122.69502488312865 122.69502488312865 0 0 0 24.018736134675446,-6.953439040707552 Z M 77.16691665556866,-9.254854907307461 L 76.99256263133509,-8.270171874939408 A 121.69502488312865 121.69502488312865 0 0 1 83.76080049343274,-6.872454418068806 L 83.07088925326775,-3.952861555922781 L 90.68816904513429,-5.7492603347081825 L 84.68068214698604,-10.76524490093017 L 83.99077090682106,-7.845652038784147 A 122.69502488312865 122.69502488312865 0 0 0 77.16691665556866,-9.254854907307461"/><text text-anchor="middle" pointer-events="none" font-size="8px" fill="#000000" x="53.95683266153603" y="-7.6206501876068415" font-family="sans-serif">twowheeler</text></g><g class="relationship" transform="translate(43.12907953689758 150.8664511005406) rotate(358.9493884711203)"><path class="outline" fill="#A5ABB6" stroke="none" d="M 24.018736134675446,6.953439040707552 L 24.277555179777966,5.987513214418485 A 123.89638147868084 123.89638147868084 0 0 0 31.547366275943833,7.702359497194507 L 31.347223771749142,8.682126294965627 A 124.89638147868084 124.89638147868084 0 0 1 24.018736134675446,6.953439040707552 Z M 77.7230619801378,9.365854479696154 L 77.5518899781848,8.38061331848364 A 123.89638147868084 123.89638147868084 0 0 0 84.86909505082791,6.880826309481161 L 84.1784018348201,3.9614183418684132 L 91.79616251125896,5.755776800065064 L 85.79001933883832,10.773370266298157 L 85.0993261228305,7.853962298685409 A 124.89638147868084 124.89638147868084 0 0 1 77.7230619801378,9.365854479696154"/><text text-anchor="middle" pointer-events="none" font-size="8px" fill="#000000" x="54.510497078960206" y="13.695662725751532" font-family="sans-serif">twowheeler</text></g><g class="relationship" transform="translate(43.12907953689758 150.8664511005406) rotate(358.9493884711203)"><path class="outline" fill="#A5ABB6" stroke="none" d="M 24.018736134675446,-6.953439040707552 L 24.277555179777966,-5.987513214418485 A 123.89638147868084 123.89638147868084 0 0 1 44.90500798185183,-9.67995780441592 L 44.812678486774004,-10.675686313769091 A 124.89638147868084 124.89638147868084 0 0 0 24.018736134675446,-6.953439040707552 Z M 64.20468961917823,-10.961586581711515 L 64.1417543187286,-9.963568972669805 A 123.89638147868084 123.89638147868084 0 0 1 84.86909505082791,-6.880826309481161 L 84.1784018348201,-3.9614183418684132 L 91.79616251125896,-5.755776800065064 L 85.79001933883832,-10.773370266298157 L 85.0993261228305,-7.853962298685409 A 124.89638147868084 124.89638147868084 0 0 0 64.20468961917823,-10.961586581711515"/><text text-anchor="middle" pointer-events="none" font-size="8px" fill="#000000" x="54.510497078960185" y="-7.695662725751532" font-family="sans-serif">trek</text></g><g class="relationship" transform="translate(-17.769019690246477 53.29295552940057) rotate(418.0306647925037)"><path class="outline" fill="#A5ABB6" stroke="none" d="M 24.018736134675446,6.953439040707552 L 24.277555179777966,5.987513214418485 A 121.69502488312865 121.69502488312865 0 0 0 44.35263079346444,9.596972363608472 L 44.25877392025815,10.592558064265091 A 122.69502488312865 122.69502488312865 0 0 1 24.018736134675446,6.953439040707552 Z M 63.65143509413587,10.881065606694932 L 63.587236160333276,9.883128485981103 A 121.69502488312865 121.69502488312865 0 0 0 83.76080049343274,6.872454418068806 L 83.07088925326775,3.952861555922781 L 90.68816904513429,5.7492603347081825 L 84.68068214698604,10.76524490093017 L 83.99077090682106,7.845652038784147 A 122.69502488312865 122.69502488312865 0 0 1 63.65143509413587,10.881065606694932"/><text text-anchor="middle" pointer-events="none" font-size="8px" fill="#000000" x="53.95683266153602" y="13.620650187606842" font-family="sans-serif">trek</text></g><g class="relationship" transform="translate(86.11939950890472 -51.77452171991781) rotate(494.6767053034978)"><path class="outline" fill="#A5ABB6" stroke="none" d="M 24.018736134675446,6.953439040707552 L 24.277555179777966,5.987513214418485 A 186.42558548086177 186.42558548086177 0 0 0 60.70812037815841,11.96472471556433 L 60.6447174563547,12.962712726267227 A 187.42558548086177 187.42558548086177 0 0 1 24.018736134675446,6.953439040707552 Z M 80.0224012657272,13.189917346126748 L 79.98241550791357,12.190717096340904 A 186.42558548086177 186.42558548086177 0 0 0 116.54311247171782,7.069332954943964 L 115.83481272045395,4.154146603720504 L 123.46326391644988,5.902497927198859 L 117.48751214006964,10.956248089908577 L 116.77921238880577,8.041061738685118 A 187.42558548086177 187.42558548086177 0 0 1 80.0224012657272,13.189917346126748"/><text text-anchor="middle" pointer-events="none" font-size="8px" fill="#000000" x="70.3364830263174" y="15.826963322633844" transform="rotate(180 70.3364830263174 12.826963322633844)" font-family="sans-serif">trek</text></g><g class="relationship" transform="translate(86.11939950890472 -51.77452171991781) rotate(385.09331134667207)"><path class="outline" fill="#A5ABB6" stroke="none" d="M 25 0.5 L 50.620626205816045 0.5 L 50.620626205816045 -0.5 L 25 -0.5 Z M 69.95656370581605 0.5 L 95.57718991163209 0.5 L 95.57718991163209 3.5 L 102.57718991163209 0 L 95.57718991163209 -3.5 L 95.57718991163209 -0.5 L 69.95656370581605 -0.5 Z"/><text text-anchor="middle" pointer-events="none" font-size="8px" fill="#000000" x="60.288594955816045" y="3" font-family="sans-serif">trek</text></g><g class="relationship" transform="translate(42.45864989420653 20.048294097500225) rotate(301.2952198336777)"><path class="outline" fill="#A5ABB6" stroke="none" d="M 25 0.5 L 27.52025729326987 0.5 L 27.52025729326987 -0.5 L 25 -0.5 Z M 49.53197604326987 0.5 L 52.05223333653974 0.5 L 52.05223333653974 3.5 L 59.05223333653974 0 L 52.05223333653974 -3.5 L 52.05223333653974 -0.5 L 49.53197604326987 -0.5 Z"/><text text-anchor="middle" pointer-events="none" font-size="8px" fill="#000000" x="38.52611666826987" y="3" font-family="sans-serif">road</text></g><g class="relationship" transform="translate(42.45864989420653 20.048294097500225) rotate(301.2952198336777)"><path class="outline" fill="#A5ABB6" stroke="none" d="M 21.40063509461097,-12.933012701892217 L 21.90063509461097,-12.06698729810778 A 35.503914982607796 35.503914982607796 0 0 1 23.248594395240186,-12.806784763630862 L 22.786560892774038,-13.693647234704514 A 36.503914982607796 36.503914982607796 0 0 0 21.40063509461097,-12.933012701892217 Z M 53.956826496620856,-14.904285224848984 L 53.56497170741479,-13.984258146890802 A 35.503914982607796 35.503914982607796 0 0 1 54.96625050975671,-13.351239755171916 L 53.672281273011116,-10.644647134485156 L 61.49729483081675,-10.78307697287998 L 56.69154282541751,-16.960029916087592 L 55.39757358867191,-14.253437295400834 A 36.503914982607796 36.503914982607796 0 0 0 53.956826496620856,-14.904285224848984"/><text text-anchor="middle" pointer-events="none" font-size="8px" fill="#000000" x="38.25527153726688" y="-14.296484562115403" font-family="sans-serif">Publi…</text></g><g class="relationship" transform="translate(86.11939950890472 -51.77452171991781) rotate(413.0806034967186)"><path class="outline" fill="#A5ABB6" stroke="none" d="M 25 0.5 L 42.365561720449634 0.5 L 42.365561720449634 -0.5 L 25 -0.5 Z M 61.701499220449634 0.5 L 79.06706094089927 0.5 L 79.06706094089927 3.5 L 86.06706094089927 0 L 79.06706094089927 -3.5 L 79.06706094089927 -0.5 L 61.701499220449634 -0.5 Z"/><text text-anchor="middle" pointer-events="none" font-size="8px" fill="#000000" x="52.033530470449634" y="3" font-family="sans-serif">trek</text></g><g class="relationship" transform="translate(-17.769019690246477 53.29295552940057) rotate(465.6181793944664)"><path class="outline" fill="#A5ABB6" stroke="none" d="M 24.018736134675446,-6.953439040707552 L 24.277555179777966,-5.987513214418485 A 148.10067622743708 148.10067622743708 0 0 1 37.58901733679501,-8.905226145963013 L 37.420079462367056,-9.890852847399117 A 149.10067622743708 149.10067622743708 0 0 0 24.018736134675446,-6.953439040707552 Z M 83.84739745989444,-10.513511237559158 L 83.70495299071244,-9.523708442453255 A 148.10067622743708 148.10067622743708 0 0 1 97.0898749528142,-6.964033155030045 L 96.39140999537143,-4.046474808874053 L 104.01392192008531,-5.820541312022948 L 98.02116156273787,-10.854110949904701 L 97.3226966052951,-7.9365526037487095 A 149.10067622743708 149.10067622743708 0 0 0 83.84739745989444,-10.513511237559158"/><text text-anchor="middle" pointer-events="none" font-size="8px" fill="#000000" x="60.616057093905276" y="-8.520558975611038" transform="rotate(180 60.616057093905276 -11.520558975611038)" font-family="sans-serif">twowheeler</text></g><g class="relationship" transform="translate(-52.3178840455016 176.8816739628975) rotate(344.7536912880885)"><path class="outline" fill="#A5ABB6" stroke="none" d="M 21.40063509461097,12.933012701892217 L 21.90063509461097,12.06698729810778 A 51.09436404968173 51.09436404968173 0 0 0 23.689880944038222,13.052851563061012 L 23.224899402193167,13.93817193769575 A 52.09436404968173 52.09436404968173 0 0 1 21.40063509461097,12.933012701892217 Z M 68.54542679977004,15.448985477431982 L 68.1404384662874,14.534663625050143 A 51.09436404968173 51.09436404968173 0 0 0 69.99136889244807,13.670148954198938 L 68.66772671435524,10.977943281451465 L 76.49378915854098,11.030351484106914 L 71.75622512990518,17.259756517862233 L 70.43258295181235,14.567550845114761 A 52.09436404968173 52.09436404968173 0 0 1 68.54542679977004,15.448985477431982"/><text text-anchor="middle" pointer-events="none" font-size="8px" fill="#000000" x="45.72881269364342" y="22.383689520728474" font-family="sans-serif">twowheeler</text></g><g class="relationship" transform="translate(-52.3178840455016 176.8816739628975) rotate(344.7536912880885)"><path class="outline" fill="#A5ABB6" stroke="none" d="M 25 0.5 L 34.95855884071829 0.5 L 34.95855884071829 -0.5 L 25 -0.5 Z M 56.97027759071829 0.5 L 66.92883643143658 0.5 L 66.92883643143658 3.5 L 73.92883643143658 0 L 66.92883643143658 -3.5 L 66.92883643143658 -0.5 L 56.97027759071829 -0.5 Z"/><text text-anchor="middle" pointer-events="none" font-size="8px" fill="#000000" x="45.96441821571829" y="3" font-family="sans-serif">road</text></g><g class="relationship" transform="translate(-52.3178840455016 176.8816739628975) rotate(344.7536912880885)"><path class="outline" fill="#A5ABB6" stroke="none" d="M 21.40063509461097,-12.933012701892217 L 21.90063509461097,-12.06698729810778 A 51.09436404968173 51.09436404968173 0 0 1 36.26221081827485,-17.672922145117205 L 36.04329026785366,-18.64866483281888 A 52.09436404968173 52.09436404968173 0 0 0 21.40063509461097,-12.933012701892217 Z M 55.44178338832377,-19.295336611366046 L 55.288331735449226,-18.307180454561838 A 51.09436404968173 51.09436404968173 0 0 1 69.99136889244807,-13.670148954198938 L 68.66772671435524,-10.977943281451465 L 76.49378915854098,-11.030351484106914 L 71.75622512990518,-17.259756517862233 L 70.43258295181235,-14.567550845114761 A 52.09436404968173 52.09436404968173 0 0 0 55.44178338832377,-19.295336611366046"/><text text-anchor="middle" pointer-events="none" font-size="8px" fill="#000000" x="45.7288126936434" y="-16.383689520728474" font-family="sans-serif">trek</text></g><g class="relationship" transform="translate(-17.769019690246477 53.29295552940057) rotate(465.6181793944664)"><path class="outline" fill="#A5ABB6" stroke="none" d="M 24.018736134675446,6.953439040707552 L 24.277555179777966,5.987513214418485 A 148.10067622743708 148.10067622743708 0 0 0 50.99918723072,10.578178951656497 L 50.92079701775803,11.57510170418638 A 149.10067622743708 149.10067622743708 0 0 1 24.018736134675446,6.953439040707552 Z M 70.30636734171827,11.835090618706374 L 70.25474090543051,10.836424152324213 A 148.10067622743708 148.10067622743708 0 0 0 97.0898749528142,6.964033155030045 L 96.39140999537143,4.046474808874053 L 104.01392192008531,5.820541312022948 L 98.02116156273787,10.854110949904701 L 97.3226966052951,7.9365526037487095 A 149.10067622743708 149.10067622743708 0 0 1 70.30636734171827,11.835090618706374"/><text text-anchor="middle" pointer-events="none" font-size="8px" fill="#000000" x="60.61605709390534" y="14.520558975611038" transform="rotate(180 60.61605709390534 11.520558975611038)" font-family="sans-serif">trek</text></g><g class="relationship" transform="translate(-52.3178840455016 176.8816739628975) rotate(387.93073788033837)"><path class="outline" fill="#A5ABB6" stroke="none" d="M 25 0.5 L 51.51096030555982 0.5 L 51.51096030555982 -0.5 L 25 -0.5 Z M 70.84689780555982 0.5 L 97.35785811111964 0.5 L 97.35785811111964 3.5 L 104.35785811111964 0 L 97.35785811111964 -3.5 L 97.35785811111964 -0.5 L 70.84689780555982 -0.5 Z"/><text text-anchor="middle" pointer-events="none" font-size="8px" fill="#000000" x="61.17892905555982" y="3" font-family="sans-serif">trek</text></g><g class="relationship" transform="translate(61.971655305427085 237.47339493242504) rotate(317.62464119006796)"><path class="outline" fill="#A5ABB6" stroke="none" d="M 25 0.5 L 52.66153205356133 0.5 L 52.66153205356133 -0.5 L 25 -0.5 Z M 71.99746955356133 0.5 L 99.65900160712266 0.5 L 99.65900160712266 3.5 L 106.65900160712266 0 L 99.65900160712266 -3.5 L 99.65900160712266 -0.5 L 71.99746955356133 -0.5 Z"/><text text-anchor="middle" pointer-events="none" font-size="8px" fill="#000000" x="62.32950080356133" y="3" font-family="sans-serif">trek</text></g></g><g class="layer nodes"><g class="node" transform="translate(42.45864989420653,20.048294097500225)"><circle class="outline" cx="0" cy="0" r="25" fill="#F16667" stroke="#eb2728" stroke-width="2px"/><text text-anchor="middle" pointer-events="none" font-family="sans-serif" dy="1.5625" font-size="25" fill="#FFFFFF"/><text text-anchor="middle" pointer-events="none" x="0" y="5" font-size="10px" fill="#FFFFFF" font-family="sans-serif"> Darjeeling</text></g><g class="node" transform="translate(159.23411992764903,148.7372372525066)"><circle class="outline" cx="0" cy="0" r="25" fill="#D9C8AE" stroke="#c0a378" stroke-width="2px"/><text text-anchor="middle" pointer-events="none" font-family="sans-serif" dy="1.5625" font-size="25" fill="#2A2C34"/><text text-anchor="middle" pointer-events="none" x="0" y="5" font-size="10px" fill="#2A2C34" font-family="sans-serif"> Sandak…</text></g><g class="node" transform="translate(152.83637346520356,37.02152217936845)"><circle class="outline" cx="0" cy="0" r="25" fill="#8DCC93" stroke="#5db665" stroke-width="2px"/><text text-anchor="middle" pointer-events="none" font-family="sans-serif" dy="1.5625" font-size="25" fill="#2A2C34"/><text text-anchor="middle" pointer-events="none" x="0" y="5" font-size="10px" fill="#2A2C34" font-family="sans-serif"> Tumbling</text></g><g class="node" transform="translate(278.54078001682876,62.95256912822058)"><circle class="outline" cx="0" cy="0" r="25" fill="#8DCC93" stroke="#5db665" stroke-width="2px"/><text text-anchor="middle" pointer-events="none" font-family="sans-serif" dy="1.5625" font-size="25" fill="#2A2C34"/><text text-anchor="middle" pointer-events="none" x="0" y="5" font-size="10px" fill="#2A2C34" font-family="sans-serif"> Gairibus</text></g><g class="node" transform="translate(201.6556390734967,2.330161377036486)"><circle class="outline" cx="0" cy="0" r="25" fill="#8DCC93" stroke="#5db665" stroke-width="2px"/><text text-anchor="middle" pointer-events="none" font-family="sans-serif" dy="1.5625" font-size="25" fill="#2A2C34"/><text text-anchor="middle" pointer-events="none" x="0" y="5" font-size="10px" fill="#2A2C34" font-family="sans-serif"> BhikeBh…</text></g><g class="node" transform="translate(86.11939950890472,-51.77452171991781)"><circle class="outline" cx="0" cy="0" r="25" fill="#F16667" stroke="#eb2728" stroke-width="2px"/><text text-anchor="middle" pointer-events="none" font-family="sans-serif" dy="1.5625" font-size="25" fill="#FFFFFF"/><text text-anchor="middle" pointer-events="none" x="0" y="5" font-size="10px" fill="#FFFFFF" font-family="sans-serif"> Rimbik</text></g><g class="node" transform="translate(-17.769019690246477,53.29295552940057)"><circle class="outline" cx="0" cy="0" r="25" fill="#8DCC93" stroke="#5db665" stroke-width="2px"/><text text-anchor="middle" pointer-events="none" font-family="sans-serif" dy="1.5625" font-size="25" fill="#2A2C34"/><text text-anchor="middle" pointer-events="none" x="0" y="5" font-size="10px" fill="#2A2C34" font-family="sans-serif"> Sirikhola</text></g><g class="node" transform="translate(43.12907953689758,150.8664511005406)"><circle class="outline" cx="0" cy="0" r="25" fill="#8DCC93" stroke="#5db665" stroke-width="2px"/><text text-anchor="middle" pointer-events="none" font-family="sans-serif" dy="1.5625" font-size="25" fill="#2A2C34"/><text text-anchor="middle" pointer-events="none" x="0" y="5" font-size="10px" fill="#2A2C34" font-family="sans-serif"> Gurdum</text></g><g class="node" transform="translate(-52.3178840455016,176.8816739628975)"><circle class="outline" cx="0" cy="0" r="25" fill="#8DCC93" stroke="#5db665" stroke-width="2px"/><text text-anchor="middle" pointer-events="none" font-family="sans-serif" dy="1.5625" font-size="25" fill="#2A2C34"/><text text-anchor="middle" pointer-events="none" x="0" y="5" font-size="10px" fill="#2A2C34" font-family="sans-serif"> Rammam</text></g><g class="node" transform="translate(61.971655305427085,237.47339493242504)"><circle class="outline" cx="0" cy="0" r="25" fill="#D9C8AE" stroke="#c0a378" stroke-width="2px"/><text text-anchor="middle" pointer-events="none" font-family="sans-serif" dy="1.5625" font-size="25" fill="#2A2C34"/><text text-anchor="middle" pointer-events="none" x="0" y="5" font-size="10px" fill="#2A2C34" font-family="sans-serif"> Sabargr…</text></g></g></svg>